<?xml version="1.0" standalone="no"?>
<!DOCTYPE svg PUBLIC "-//W3C//DTD SVG 20010904//EN"
 "http://www.w3.org/TR/2001/REC-SVG-20010904/DTD/svg10.dtd">
<?xml-stylesheet type="text/css" href="/assets/css/main.css" ?>
<svg version="1.0" xmlns="http://www.w3.org/2000/svg"
 width="184.000000pt" height="184.000000pt" viewBox="0 0 184.000000 184.000000"
 preserveAspectRatio="xMidYMid meet" class="logos">
<metadata>
Created by potrace 1.13, written by Peter Selinger 2001-2015
</metadata>
<g transform="translate(0.000000,184.000000) scale(0.100000,-0.100000)" stroke="none">
<path d="M589 1731 c-141 -45 -254 -178 -267 -314 l-5 -48 -63 -29 c-85 -38
-156 -107 -197 -189 -30 -61 -32 -73 -32 -166 0 -88 3 -107 27 -158 54 -115
130 -184 240 -219 110 -33 170 -17 170 47 0 38 -18 53 -74 60 -100 14 -171 62
-213 144 -33 67 -40 128 -21 193 32 111 118 182 233 194 l59 6 -1 92 c0 75 4
98 22 132 26 49 92 111 141 131 54 22 152 19 206 -6 41 -20 107 -83 131 -125
9 -16 15 -17 50 -7 87 24 160 10 239 -46 34 -24 52 -48 78 -103 l33 -70 51 6
c188 22 343 -158 290 -338 -29 -102 -119 -184 -218 -202 -46 -8 -68 -29 -68
-65 0 -45 31 -65 87 -57 116 15 246 116 301 233 24 52 27 70 27 163 0 92 -4
112 -26 160 -58 122 -180 214 -303 227 -53 5 -59 9 -86 47 -42 60 -98 111
-155 140 -56 27 -155 47 -198 39 -22 -4 -36 2 -70 34 -113 104 -252 138 -388
94z"/>
<path d="M500 810 l0 -210 67 0 c52 0 64 3 55 12 -41 41 17 128 86 128 72 0
121 -65 87 -116 l-15 -24 70 0 70 0 0 88 c0 49 3 92 7 95 3 4 17 0 30 -9 34
-22 66 -14 77 18 15 41 -6 78 -43 78 -16 0 -33 -4 -36 -10 -3 -5 -13 -10 -21
-10 -11 0 -14 18 -14 85 l0 85 -210 0 -210 0 0 -210z"/>
<path d="M960 965 l0 -55 34 0 c54 0 81 -29 81 -88 0 -36 -6 -56 -20 -72 -26
-29 -56 -40 -77 -28 -16 8 -18 2 -18 -57 l0 -65 91 0 c90 0 91 0 84 -22 -16
-53 -16 -66 0 -81 21 -21 59 -22 79 -1 18 17 21 60 6 69 -5 3 -10 13 -10 21 0
11 16 14 75 14 l75 0 0 210 0 210 -200 0 -200 0 0 -55z"/>
<path d="M670 682 c-21 -17 -22 -21 -10 -54 22 -60 12 -68 -80 -68 l-80 0 0
-200 0 -200 210 0 210 0 0 70 c0 67 -1 70 -19 60 -81 -43 -153 79 -86 145 28
29 51 31 83 9 l22 -15 0 65 0 65 -81 3 c-65 2 -84 7 -93 21 -8 12 -8 22 2 35
25 35 25 45 3 64 -29 23 -53 23 -81 0z"/>
</g>
</svg>
