<?xml version="1.0" standalone="no"?>
<!DOCTYPE svg PUBLIC "-//W3C//DTD SVG 20010904//EN"
 "http://www.w3.org/TR/2001/REC-SVG-20010904/DTD/svg10.dtd">
<?xml-stylesheet type="text/css" href="/assets/css/main.css" ?>
<svg version="1.0" xmlns="http://www.w3.org/2000/svg"
 width="184.000000pt" height="184.000000pt" viewBox="0 0 184.000000 184.000000"
 preserveAspectRatio="xMidYMid meet" class="logos">
<metadata>
Created by potrace 1.13, written by Peter Selinger 2001-2015
</metadata>
<g transform="translate(0.000000,184.000000) scale(0.100000,-0.100000)" stroke="none">
<path d="M589 1731 c-141 -45 -254 -178 -267 -314 l-5 -48 -63 -29 c-85 -38
-156 -107 -197 -189 -30 -61 -32 -73 -32 -166 0 -88 3 -107 27 -158 54 -115
130 -184 240 -219 110 -33 170 -17 170 47 0 38 -18 53 -74 60 -100 14 -171 62
-213 144 -33 67 -40 128 -21 193 32 111 118 182 233 194 l59 6 -1 92 c0 75 4
98 22 132 26 49 92 111 141 131 54 22 152 19 206 -6 41 -20 107 -83 131 -125
9 -16 15 -17 50 -7 87 24 160 10 239 -46 34 -24 52 -48 78 -103 l33 -70 51 6
c188 22 343 -158 290 -338 -29 -102 -119 -184 -218 -202 -46 -8 -68 -29 -68
-65 0 -45 31 -65 87 -57 116 15 246 116 301 233 24 52 27 70 27 163 0 92 -4
112 -26 160 -58 122 -180 214 -303 227 -53 5 -59 9 -86 47 -42 60 -98 111
-155 140 -56 27 -155 47 -198 39 -22 -4 -36 2 -70 34 -113 104 -252 138 -388
94z"/>
<path d="M652 1208 c-7 -7 -12 -24 -12 -39 0 -38 -34 -48 -65 -19 -19 18 -27
20 -44 11 -11 -6 -26 -21 -32 -32 -9 -17 -7 -25 11 -44 29 -31 19 -65 -19 -65
-34 0 -51 -17 -51 -50 0 -33 17 -50 51 -50 38 0 48 -34 19 -65 -18 -19 -20
-27 -11 -44 6 -11 21 -26 32 -32 17 -9 25 -7 44 11 31 29 65 19 65 -19 0 -34
17 -51 50 -51 33 0 50 17 50 51 0 38 34 48 65 19 19 -18 27 -20 44 -11 11 6
26 21 32 32 9 17 7 25 -11 44 -29 31 -19 65 19 65 34 0 51 17 51 50 0 33 -17
50 -51 50 -38 0 -48 34 -19 65 18 19 20 27 11 44 -6 11 -21 26 -32 32 -17 9
-25 7 -44 -11 -31 -29 -65 -19 -65 19 0 15 -5 32 -12 39 -15 15 -61 15 -76 0z
m88 -143 c32 -17 60 -61 60 -95 0 -53 -57 -110 -110 -110 -53 0 -110 57 -110
110 0 33 28 78 58 94 35 20 66 20 102 1z"/>
<path d="M964 896 c-11 -13 -19 -27 -17 -33 2 -5 -12 -34 -32 -63 l-35 -52 0
-164 0 -164 -50 0 -50 0 0 133 0 133 -40 -4 -40 -4 0 -129 0 -129 -40 0 -40 0
0 129 c0 76 -4 132 -10 136 -5 3 -10 19 -10 36 0 32 -11 37 -31 13 -7 -8 -21
-13 -31 -11 -17 5 -18 -7 -18 -199 l0 -204 410 0 410 0 0 300 0 300 -177 -1
c-171 -1 -179 -2 -199 -23z m96 -276 l0 -200 -50 0 -50 0 0 200 0 200 50 0 50
0 0 -200z m180 0 l0 -200 -50 0 -50 0 0 200 0 200 50 0 50 0 0 -200z"/>
</g>
</svg>
