<?xml version="1.0" standalone="no"?>
<!DOCTYPE svg PUBLIC "-//W3C//DTD SVG 20010904//EN"
 "http://www.w3.org/TR/2001/REC-SVG-20010904/DTD/svg10.dtd">
<svg version="1.0" xmlns="http://www.w3.org/2000/svg"
 width="184.000000pt" height="184.000000pt" viewBox="0 0 184.000000 184.000000"
 preserveAspectRatio="xMidYMid meet">
<metadata>
Created by potrace 1.13, written by Peter Selinger 2001-2015
</metadata>
<g transform="translate(0.000000,184.000000) scale(0.100000,-0.100000)"
fill="#000000" stroke="none">
<path d="M630 1736 c-158 -35 -270 -152 -303 -315 l-13 -64 -55 -20 c-77 -29
-178 -131 -207 -210 -32 -84 -37 -151 -18 -226 21 -84 60 -153 112 -201 101
-93 267 -134 306 -76 23 34 -13 86 -60 86 -55 0 -125 32 -172 80 -111 110
-106 289 9 393 50 45 78 57 151 66 l55 6 2 80 c2 95 23 153 71 207 57 63 104
83 197 83 59 0 89 -5 115 -19 45 -23 98 -73 117 -109 14 -28 16 -28 66 -21
134 20 219 -11 288 -104 15 -20 32 -55 39 -77 l12 -41 69 4 c157 9 274 -91
286 -243 12 -147 -71 -263 -214 -300 -84 -22 -108 -64 -58 -103 21 -17 32 -18
72 -11 114 22 224 106 276 213 75 153 52 313 -64 440 -56 62 -132 102 -222
119 -63 11 -68 15 -100 61 -73 102 -174 157 -302 164 -76 4 -82 6 -122 43 -56
51 -128 86 -204 99 -35 5 -66 10 -69 9 -3 0 -30 -6 -60 -13z"/>
<path d="M863 1213 c-25 -3 -43 -9 -43 -16 0 -7 11 -70 25 -142 14 -71 25
-130 25 -132 0 -2 25 -3 55 -3 49 0 55 3 60 23 2 12 14 73 25 136 24 127 23
131 -42 131 -20 0 -42 1 -50 3 -7 2 -32 2 -55 0z"/>
<path d="M674 1155 c-38 -19 -80 -43 -93 -54 l-24 -18 79 -104 c43 -56 82
-107 85 -111 3 -5 26 3 51 17 l45 25 -26 140 c-15 82 -31 140 -37 140 -6 0
-42 -16 -80 -35z"/>
<path d="M1089 1178 c-4 -11 -36 -194 -34 -196 1 -1 28 29 60 68 32 39 60 68
63 66 3 -3 -1 -46 -8 -96 -6 -50 -10 -93 -7 -96 2 -2 30 29 61 71 l56 75 -42
31 c-57 41 -145 86 -149 77z"/>
<path d="M477 998 c-19 -24 -49 -68 -66 -98 l-31 -56 126 -53 c69 -29 126 -52
127 -50 1 2 12 18 25 36 12 18 22 35 22 40 0 5 -131 183 -160 216 -4 5 -23
-11 -43 -35z"/>
<path d="M1237 916 l-78 -104 23 -35 c13 -20 27 -36 31 -37 9 0 218 88 225 95
10 10 -101 186 -117 185 -3 -1 -41 -47 -84 -104z"/>
<path d="M1000 820 c-95 -143 -133 -192 -158 -204 -92 -44 -97 -193 -9 -246
42 -26 112 -26 154 0 47 28 66 72 61 139 -4 39 7 119 38 276 23 121 41 221 41
222 -1 1 -58 -84 -127 -187z m-38 -277 c23 -20 24 -80 1 -105 -20 -23 -80 -24
-105 -1 -23 20 -24 80 -1 105 20 23 80 24 105 1z"/>
</g>
</svg>
