<?xml version="1.0" standalone="no"?>
<!DOCTYPE svg PUBLIC "-//W3C//DTD SVG 20010904//EN"
 "http://www.w3.org/TR/2001/REC-SVG-20010904/DTD/svg10.dtd">
<svg version="1.0" xmlns="http://www.w3.org/2000/svg"
 width="200.000000pt" height="200.000000pt" viewBox="0 0 200.000000 200.000000"
 preserveAspectRatio="xMidYMid meet">
<metadata>
Created by potrace 1.13, written by Peter Selinger 2001-2015
</metadata>
<g transform="translate(0.000000,200.000000) scale(0.100000,-0.100000)"
fill="#000000" stroke="none">
<path d="M633 1880 c-147 -48 -264 -190 -287 -350 -6 -45 -8 -46 -72 -74 -220
-96 -316 -356 -210 -570 63 -129 177 -216 312 -239 97 -17 145 18 121 86 -10
31 -41 47 -90 47 -80 0 -188 84 -229 178 -30 66 -22 191 15 254 49 85 129 133
235 144 l60 7 -5 77 c-7 99 13 162 72 228 70 78 172 113 266 93 72 -16 140
-62 181 -122 33 -49 33 -50 73 -42 22 4 69 8 105 8 53 -1 75 -6 119 -30 68
-38 117 -95 138 -163 l17 -54 63 7 c274 29 429 -287 244 -497 -36 -42 -122
-88 -162 -88 -65 0 -103 -76 -59 -120 23 -23 47 -25 116 -6 235 62 377 315
305 545 -51 163 -193 284 -351 298 -54 5 -61 9 -78 37 -76 128 -212 207 -358
208 -72 0 -73 0 -117 43 -25 23 -75 58 -112 76 -59 29 -79 34 -159 36 -70 2
-105 -2 -153 -17z"/>
<path d="M611 1053 c-62 -31 -61 -46 18 -187 39 -69 77 -136 85 -149 13 -20 8
-33 -71 -169 -92 -160 -95 -176 -42 -204 57 -29 64 -21 171 166 55 96 100 178
101 181 4 13 -198 361 -213 369 -10 5 -28 2 -49 -7z"/>
<path d="M854 967 l-27 -24 45 -84 c26 -46 56 -102 68 -124 l23 -40 -68 -120
c-71 -128 -72 -136 -22 -165 21 -12 28 -12 41 -1 17 14 166 272 166 287 0 4
-36 72 -81 151 -88 155 -96 162 -145 120z"/>
<path d="M1088 916 c-10 -7 -18 -18 -18 -25 0 -6 23 -53 52 -103 l51 -92 -19
-35 c-11 -20 -35 -64 -54 -98 -33 -61 -34 -62 -15 -82 34 -38 50 -27 111 82
31 56 62 109 67 118 7 11 -7 45 -58 132 -68 119 -81 131 -117 103z"/>
<path d="M1293 873 c-21 -8 -15 -33 27 -105 22 -39 40 -71 40 -73 0 -1 -18
-34 -40 -71 -45 -78 -49 -100 -19 -109 27 -9 33 -2 90 97 l48 82 -35 61 c-19
33 -42 75 -51 93 -16 30 -32 37 -60 25z"/>
</g>
</svg>
