<?xml version="1.0" standalone="no"?>
<!DOCTYPE svg PUBLIC "-//W3C//DTD SVG 20010904//EN"
 "http://www.w3.org/TR/2001/REC-SVG-20010904/DTD/svg10.dtd">
<?xml-stylesheet type="text/css" href="/assets/css/main.css" ?>
<svg version="1.0" xmlns="http://www.w3.org/2000/svg"
 width="184.000000pt" height="184.000000pt" viewBox="0 0 184.000000 184.000000"
 preserveAspectRatio="xMidYMid meet" class="logos">
<metadata>
Created by potrace 1.13, written by Peter Selinger 2001-2015
</metadata>
<g transform="translate(0.000000,184.000000) scale(0.100000,-0.100000)" stroke="none">
<path d="M589 1731 c-141 -45 -254 -178 -267 -314 l-5 -48 -63 -29 c-85 -38
-156 -107 -197 -189 -30 -61 -32 -73 -32 -166 0 -88 3 -107 27 -158 54 -115
130 -184 240 -219 110 -33 170 -17 170 47 0 38 -18 53 -74 60 -100 14 -171 62
-213 144 -33 67 -40 128 -21 193 32 111 118 182 233 194 l59 6 -1 92 c0 75 4
98 22 132 26 49 92 111 141 131 54 22 152 19 206 -6 41 -20 107 -83 131 -125
9 -16 15 -17 50 -7 87 24 160 10 239 -46 34 -24 52 -48 78 -103 l33 -70 51 6
c188 22 343 -158 290 -338 -29 -102 -119 -184 -218 -202 -46 -8 -68 -29 -68
-65 0 -45 31 -65 87 -57 116 15 246 116 301 233 24 52 27 70 27 163 0 92 -4
112 -26 160 -58 122 -180 214 -303 227 -53 5 -59 9 -86 47 -42 60 -98 111
-155 140 -56 27 -155 47 -198 39 -22 -4 -36 2 -70 34 -113 104 -252 138 -388
94z"/>
<path d="M596 1097 c-94 -54 -101 -188 -12 -249 17 -12 32 -23 34 -24 3 -2
-26 -274 -34 -311 -2 -13 -18 -30 -34 -38 -35 -18 -70 -81 -70 -127 0 -74 74
-147 148 -148 71 0 138 55 149 124 5 32 10 35 133 85 l128 53 40 -21 c52 -26
92 -27 142 -1 45 23 80 80 80 130 0 84 -80 156 -164 148 -39 -4 -49 1 -179 98
l-139 102 -2 54 c-2 64 -24 102 -77 129 -50 25 -95 24 -143 -4z m289 -354 c96
-70 133 -102 128 -113 -3 -8 -8 -28 -12 -45 -6 -27 -18 -34 -129 -82 l-123
-52 -35 21 c-30 18 -34 24 -29 52 2 17 12 91 20 165 16 138 19 151 36 151 5 0
70 -44 144 -97z"/>
</g>
</svg>
