<?xml version="1.0" standalone="no"?>
<!DOCTYPE svg PUBLIC "-//W3C//DTD SVG 20010904//EN"
 "http://www.w3.org/TR/2001/REC-SVG-20010904/DTD/svg10.dtd">
<?xml-stylesheet type="text/css" href="/assets/css/main.css" ?>
<svg version="1.0" xmlns="http://www.w3.org/2000/svg"
 width="184.000000pt" height="184.000000pt" viewBox="0 0 184.000000 184.000000"
 preserveAspectRatio="xMidYMid meet" class="logos">
<metadata>
Created by potrace 1.13, written by Peter Selinger 2001-2015
</metadata>
<g transform="translate(0.000000,184.000000) scale(0.100000,-0.100000)" stroke="none">
<path d="M589 1731 c-141 -45 -254 -178 -267 -314 l-5 -48 -63 -29 c-85 -38
-156 -107 -197 -189 -30 -61 -32 -73 -32 -166 0 -88 3 -107 27 -158 54 -115
130 -184 240 -219 110 -33 170 -17 170 47 0 38 -18 53 -74 60 -100 14 -171 62
-213 144 -33 67 -40 128 -21 193 32 111 118 182 233 194 l59 6 -1 92 c0 75 4
98 22 132 26 49 92 111 141 131 54 22 152 19 206 -6 41 -20 107 -83 131 -125
9 -16 15 -17 50 -7 87 24 160 10 239 -46 34 -24 52 -48 78 -103 l33 -70 51 6
c188 22 343 -158 290 -338 -29 -102 -119 -184 -218 -202 -46 -8 -68 -29 -68
-65 0 -45 31 -65 87 -57 116 15 246 116 301 233 24 52 27 70 27 163 0 92 -4
112 -26 160 -58 122 -180 214 -303 227 -53 5 -59 9 -86 47 -42 60 -98 111
-155 140 -56 27 -155 47 -198 39 -22 -4 -36 2 -70 34 -113 104 -252 138 -388
94z"/>
<path d="M1060 921 l0 -161 161 0 162 0 -7 46 c-7 57 -60 157 -99 190 -45 38
-117 71 -170 79 l-47 7 0 -161z m165 65 c48 -37 84 -88 100 -141 l14 -45 -119
0 -120 0 0 120 0 119 45 -14 c25 -7 61 -25 80 -39z"/>
<path d="M934 1019 c-128 -49 -214 -194 -190 -323 l7 -35 102 -3 102 -3 3 -77
3 -78 109 0 c59 0 115 -3 123 -6 36 -13 127 107 142 189 l7 37 -161 0 -161 0
0 160 c0 182 5 174 -86 139z"/>
<path d="M505 848 c-3 -7 -4 -155 -3 -328 l3 -315 85 0 85 0 0 325 0 325 -83
3 c-60 2 -84 -1 -87 -10z"/>
<path d="M745 608 c-3 -8 -4 -101 -3 -208 l3 -195 85 0 85 0 0 205 0 205 -83
3 c-61 2 -84 -1 -87 -10z"/>
<path d="M984 447 c-2 -7 -3 -65 -2 -128 l3 -114 85 0 85 0 0 125 0 125 -83 3
c-62 2 -84 -1 -88 -11z"/>
</g>
</svg>
