<?xml version="1.0" standalone="no"?>
<!DOCTYPE svg PUBLIC "-//W3C//DTD SVG 20010904//EN"
 "http://www.w3.org/TR/2001/REC-SVG-20010904/DTD/svg10.dtd">
<?xml-stylesheet type="text/css" href="/assets/css/main.css" ?>
<svg version="1.0" xmlns="http://www.w3.org/2000/svg"
 width="184.000000pt" height="184.000000pt" viewBox="0 0 184.000000 184.000000"
 preserveAspectRatio="xMidYMid meet" class="logos">
<metadata>
Created by potrace 1.13, written by Peter Selinger 2001-2015
</metadata>
<g transform="translate(0.000000,184.000000) scale(0.100000,-0.100000)" stroke="none">
<path d="M589 1731 c-141 -45 -254 -178 -267 -314 l-5 -48 -63 -29 c-85 -38
-156 -107 -197 -189 -30 -61 -32 -73 -32 -166 0 -88 3 -107 27 -158 54 -115
130 -184 240 -219 110 -33 170 -17 170 47 0 38 -18 53 -74 60 -100 14 -171 62
-213 144 -33 67 -40 128 -21 193 32 111 118 182 233 194 l59 6 -1 92 c0 75 4
98 22 132 26 49 92 111 141 131 54 22 152 19 206 -6 41 -20 107 -83 131 -125
9 -16 15 -17 50 -7 87 24 160 10 239 -46 34 -24 52 -48 78 -103 l33 -70 51 6
c188 22 343 -158 290 -338 -29 -102 -119 -184 -218 -202 -46 -8 -68 -29 -68
-65 0 -45 31 -65 87 -57 116 15 246 116 301 233 24 52 27 70 27 163 0 92 -4
112 -26 160 -58 122 -180 214 -303 227 -53 5 -59 9 -86 47 -42 60 -98 111
-155 140 -56 27 -155 47 -198 39 -22 -4 -36 2 -70 34 -113 104 -252 138 -388
94z"/>
<path d="M525 1068 c-3 -7 -4 -195 -3 -418 l3 -405 425 0 425 0 0 25 c0 22 -5
25 -37 28 l-38 3 0 318 c0 233 -3 320 -12 329 -16 16 -80 16 -96 0 -9 -9 -12
-96 -12 -330 l0 -318 -30 0 -30 0 0 248 c0 180 -3 251 -12 260 -7 7 -28 12
-48 12 -20 0 -41 -5 -48 -12 -9 -9 -12 -80 -12 -260 l0 -248 -30 0 -30 0 0
138 c0 94 -4 142 -12 150 -16 16 -80 16 -96 0 -8 -8 -12 -56 -12 -150 l0 -138
-30 0 -30 0 0 188 c0 133 -4 192 -12 200 -16 16 -80 16 -96 0 -8 -8 -12 -67
-12 -200 l0 -188 -30 0 -30 0 -2 388 -3 387 -23 3 c-12 2 -24 -3 -27 -10z"/>
</g>
</svg>
