<?xml version="1.0" standalone="no"?>
<!DOCTYPE svg PUBLIC "-//W3C//DTD SVG 20010904//EN"
 "http://www.w3.org/TR/2001/REC-SVG-20010904/DTD/svg10.dtd">
<?xml-stylesheet type="text/css" href="/assets/css/main.css" ?>
<svg version="1.0" xmlns="http://www.w3.org/2000/svg"
 width="184.000000pt" height="184.000000pt" viewBox="0 0 184.000000 184.000000"
 preserveAspectRatio="xMidYMid meet" class="logos">
<metadata>
Created by potrace 1.13, written by Peter Selinger 2001-2015
</metadata>
<g transform="translate(0.000000,184.000000) scale(0.100000,-0.100000)" stroke="none">
<path d="M589 1731 c-141 -45 -254 -178 -267 -314 l-5 -48 -63 -29 c-85 -38
-156 -107 -197 -189 -30 -61 -32 -73 -32 -166 0 -88 3 -107 27 -158 54 -115
130 -184 240 -219 110 -33 170 -17 170 47 0 38 -18 53 -74 60 -100 14 -171 62
-213 144 -33 67 -40 128 -21 193 32 111 118 182 233 194 l59 6 -1 92 c0 75 4
98 22 132 26 49 92 111 141 131 54 22 152 19 206 -6 41 -20 107 -83 131 -125
9 -16 15 -17 50 -7 87 24 160 10 239 -46 34 -24 52 -48 78 -103 l33 -70 51 6
c188 22 343 -158 290 -338 -29 -102 -119 -184 -218 -202 -46 -8 -68 -29 -68
-65 0 -45 31 -65 87 -57 116 15 246 116 301 233 24 52 27 70 27 163 0 92 -4
112 -26 160 -58 122 -180 214 -303 227 -53 5 -59 9 -86 47 -42 60 -98 111
-155 140 -56 27 -155 47 -198 39 -22 -4 -36 2 -70 34 -113 104 -252 138 -388
94z"/>
<path d="M785 947 c-109 -37 -186 -103 -232 -202 -24 -51 -28 -73 -28 -145 0
-72 4 -94 28 -146 36 -77 104 -145 182 -181 51 -24 73 -28 145 -28 72 0 94 4
145 28 79 37 95 53 95 94 0 31 -2 33 -34 33 -18 0 -55 -12 -82 -27 -42 -24
-60 -28 -124 -28 -85 0 -133 20 -186 77 -54 57 -69 95 -69 178 0 83 15 121 69
178 53 57 101 77 186 77 85 0 133 -20 186 -77 35 -36 64 -88 64 -113 0 -23 10
-19 52 21 l37 37 -24 46 c-55 107 -174 182 -299 188 -41 1 -88 -3 -111 -10z"/>
<path d="M870 770 c0 -15 -9 -22 -30 -27 -39 -7 -70 -47 -70 -88 0 -36 21 -59
68 -76 29 -10 32 -14 32 -55 0 -24 -4 -44 -9 -44 -12 0 -41 29 -41 41 0 5 -13
9 -30 9 -35 0 -35 0 -16 -44 10 -24 25 -38 55 -49 23 -9 41 -24 41 -32 0 -21
17 -19 23 4 2 10 17 21 33 25 48 12 74 44 74 91 0 47 -14 64 -72 88 -34 14
-38 20 -38 51 0 40 13 46 32 16 15 -23 68 -28 68 -6 0 24 -40 64 -70 71 -21 5
-30 13 -30 26 0 10 -4 19 -10 19 -5 0 -10 -9 -10 -20z"/>
<path d="M1124 553 l-99 -108 67 -3 67 -3 3 -87 3 -87 65 0 65 0 3 87 3 87 67
3 67 3 -98 108 c-54 59 -102 107 -107 107 -4 0 -52 -48 -106 -107z"/>
</g>
</svg>
