<?xml version="1.0" standalone="no"?>
<!DOCTYPE svg PUBLIC "-//W3C//DTD SVG 20010904//EN"
 "http://www.w3.org/TR/2001/REC-SVG-20010904/DTD/svg10.dtd">
<svg version="1.0" xmlns="http://www.w3.org/2000/svg"
 width="184.000000pt" height="184.000000pt" viewBox="0 0 184.000000 184.000000"
 preserveAspectRatio="xMidYMid meet">
<metadata>
Created by potrace 1.13, written by Peter Selinger 2001-2015
</metadata>
<g transform="translate(0.000000,184.000000) scale(0.100000,-0.100000)"
fill="#000000" stroke="none">
<path d="M589 1731 c-141 -45 -254 -178 -267 -314 l-5 -48 -63 -29 c-85 -38
-156 -107 -197 -189 -30 -61 -32 -73 -32 -166 0 -88 3 -107 27 -158 54 -115
130 -184 240 -219 110 -33 170 -17 170 47 0 38 -18 53 -74 60 -100 14 -171 62
-213 144 -33 67 -40 128 -21 193 32 111 118 182 233 194 l59 6 -1 92 c0 75 4
98 22 132 26 49 92 111 141 131 54 22 152 19 206 -6 41 -20 107 -83 131 -125
9 -16 15 -17 50 -7 87 24 160 10 239 -46 34 -24 52 -48 78 -103 l33 -70 51 6
c188 22 343 -158 290 -338 -29 -102 -119 -184 -218 -202 -46 -8 -68 -29 -68
-65 0 -45 31 -65 87 -57 116 15 246 116 301 233 24 52 27 70 27 163 0 92 -4
112 -26 160 -58 122 -180 214 -303 227 -53 5 -59 9 -86 47 -42 60 -98 111
-155 140 -56 27 -155 47 -198 39 -22 -4 -36 2 -70 34 -113 104 -252 138 -388
94z"/>
<path d="M669 763 c-125 -126 -142 -155 -142 -238 0 -131 96 -226 228 -226 54
0 119 25 144 55 11 12 8 21 -12 48 -14 18 -28 47 -31 63 l-6 30 11 -31 c15
-42 53 -89 66 -81 18 11 45 79 53 131 7 44 8 46 9 15 1 -43 -22 -115 -46 -141
-16 -18 -15 -20 3 -38 10 -11 37 -26 59 -33 l40 -14 5 -62 5 -63 112 114 c99
102 113 121 128 172 53 181 -105 339 -285 285 -21 -6 -51 -22 -66 -34 -27 -22
-28 -24 -13 -42 20 -22 49 -78 49 -94 0 -6 -12 12 -28 42 -15 29 -32 54 -38
56 -16 5 -53 -69 -64 -128 l-9 -54 4 53 c3 32 15 72 30 99 13 25 22 50 19 55
-4 6 -31 21 -60 34 l-53 23 -3 56 -3 56 -106 -108z"/>
</g>
</svg>
