<?xml version="1.0" standalone="no"?>
<!DOCTYPE svg PUBLIC "-//W3C//DTD SVG 20010904//EN"
 "http://www.w3.org/TR/2001/REC-SVG-20010904/DTD/svg10.dtd">
<svg version="1.0" xmlns="http://www.w3.org/2000/svg"
 width="184.000000pt" height="184.000000pt" viewBox="0 0 184.000000 184.000000"
 preserveAspectRatio="xMidYMid meet">
<metadata>
Created by potrace 1.13, written by Peter Selinger 2001-2015
</metadata>
<g transform="translate(0.000000,184.000000) scale(0.100000,-0.100000)"
fill="#000000" stroke="none">
<path d="M589 1731 c-141 -45 -254 -178 -267 -314 l-5 -48 -63 -29 c-85 -38
-156 -107 -197 -189 -30 -61 -32 -73 -32 -166 0 -88 3 -107 27 -158 54 -115
130 -184 240 -219 110 -33 170 -17 170 47 0 38 -18 53 -74 60 -100 14 -171 62
-213 144 -33 67 -40 128 -21 193 32 111 118 182 233 194 l59 6 -1 92 c0 75 4
98 22 132 26 49 92 111 141 131 54 22 152 19 206 -6 41 -20 107 -83 131 -125
9 -16 15 -17 50 -7 87 24 160 10 239 -46 34 -24 52 -48 78 -103 l33 -70 51 6
c188 22 343 -158 290 -338 -29 -102 -119 -184 -218 -202 -46 -8 -68 -29 -68
-65 0 -45 31 -65 87 -57 116 15 246 116 301 233 24 52 27 70 27 163 0 92 -4
112 -26 160 -58 122 -180 214 -303 227 -53 5 -59 9 -86 47 -42 60 -98 111
-155 140 -56 27 -155 47 -198 39 -22 -4 -36 2 -70 34 -113 104 -252 138 -388
94z"/>
<path d="M940 1190 c0 -5 -9 -10 -20 -10 -16 0 -20 -7 -20 -30 0 -23 4 -30 20
-30 15 0 20 -7 20 -29 0 -28 -2 -30 -47 -33 l-48 -3 0 -355 0 -355 115 0 115
0 0 355 0 355 -37 3 c-35 3 -38 6 -38 34 0 30 1 30 43 24 23 -3 59 -8 80 -12
40 -7 43 -4 27 27 -15 27 -63 49 -110 49 -22 0 -40 5 -40 10 0 6 -13 10 -30
10 -16 0 -30 -4 -30 -10z"/>
<path d="M1207 874 c-4 -4 -7 -22 -7 -40 0 -31 -2 -33 -37 -36 l-38 -3 0 -225
0 -225 105 0 105 0 0 225 0 225 -37 3 c-35 3 -37 5 -40 40 -2 28 -8 38 -23 40
-12 2 -24 0 -28 -4z"/>
<path d="M560 760 c0 -42 15 -67 50 -85 38 -20 38 -31 1 -38 -36 -7 -77 -50
-92 -94 -13 -39 0 -86 40 -150 32 -53 48 -59 80 -35 26 19 26 19 64 -6 36 -24
41 -25 65 -11 27 15 27 15 30 157 2 134 1 142 -17 142 -10 0 -24 -7 -31 -15
-13 -15 -60 -21 -60 -7 0 4 12 27 25 51 20 35 23 46 13 58 -10 13 -14 12 -25
-3 -7 -10 -13 -28 -13 -41 0 -32 -18 -29 -31 5 -11 29 -54 78 -81 93 -15 8
-18 5 -18 -21z"/>
</g>
</svg>
