<?xml version="1.0" standalone="no"?>
<!DOCTYPE svg PUBLIC "-//W3C//DTD SVG 20010904//EN"
 "http://www.w3.org/TR/2001/REC-SVG-20010904/DTD/svg10.dtd">
<?xml-stylesheet type="text/css" href="/assets/css/main.css" ?>
<svg version="1.0" xmlns="http://www.w3.org/2000/svg"
 width="184.000000pt" height="184.000000pt" viewBox="0 0 184.000000 184.000000"
 preserveAspectRatio="xMidYMid meet" class="logos">
<metadata>
Created by potrace 1.13, written by Peter Selinger 2001-2015
</metadata>
<g transform="translate(0.000000,184.000000) scale(0.100000,-0.100000)" stroke="none">
<path d="M589 1731 c-141 -45 -254 -178 -267 -314 l-5 -48 -63 -29 c-85 -38
-156 -107 -197 -189 -30 -61 -32 -73 -32 -166 0 -88 3 -107 27 -158 54 -115
130 -184 240 -219 110 -33 170 -17 170 47 0 38 -18 53 -74 60 -100 14 -171 62
-213 144 -33 67 -40 128 -21 193 32 111 118 182 233 194 l59 6 -1 92 c0 75 4
98 22 132 26 49 92 111 141 131 54 22 152 19 206 -6 41 -20 107 -83 131 -125
9 -16 15 -17 50 -7 87 24 160 10 239 -46 34 -24 52 -48 78 -103 l33 -70 51 6
c188 22 343 -158 290 -338 -29 -102 -119 -184 -218 -202 -46 -8 -68 -29 -68
-65 0 -45 31 -65 87 -57 116 15 246 116 301 233 24 52 27 70 27 163 0 92 -4
112 -26 160 -58 122 -180 214 -303 227 -53 5 -59 9 -86 47 -42 60 -98 111
-155 140 -56 27 -155 47 -198 39 -22 -4 -36 2 -70 34 -113 104 -252 138 -388
94z"/>
<path d="M816 1170 c-115 -29 -225 -123 -278 -236 -69 -148 -34 -390 48 -330
16 12 17 19 4 84 -23 126 13 236 106 321 41 38 72 56 121 71 83 25 124 25 209
-1 57 -18 77 -31 129 -82 46 -47 66 -76 80 -117 20 -59 24 -147 11 -221 -8
-42 -6 -48 13 -58 36 -19 58 1 72 66 40 193 -52 383 -227 469 -64 32 -84 37
-161 40 -48 2 -105 -1 -127 -6z"/>
<path d="M820 999 c-60 -27 -107 -74 -136 -134 -42 -88 -27 -205 26 -205 28 0
35 18 35 90 0 114 67 185 175 185 107 0 174 -70 176 -185 1 -92 1 -90 34 -90
37 0 50 27 50 103 0 179 -199 309 -360 236z"/>
<path d="M871 846 c-43 -24 -63 -84 -42 -125 7 -13 -14 -90 -80 -292 -49 -151
-88 -283 -87 -293 2 -10 11 -24 21 -30 26 -17 50 3 69 60 l16 49 152 0 152 0
16 -49 c19 -57 43 -77 70 -60 9 6 18 20 20 30 1 10 -38 142 -87 293 -66 202
-87 279 -80 292 43 80 -58 170 -140 125z m84 -268 c14 -46 28 -91 31 -100 5
-16 -3 -18 -66 -18 -63 0 -71 2 -66 18 39 128 58 182 66 182 5 0 21 -37 35
-82z m74 -229 c6 -18 11 -36 11 -40 0 -5 -54 -9 -120 -9 -66 0 -120 4 -120 9
0 4 5 22 11 40 l11 31 98 0 98 0 11 -31z"/>
</g>
</svg>
