<?xml version="1.0" standalone="no"?>
<!DOCTYPE svg PUBLIC "-//W3C//DTD SVG 20010904//EN"
 "http://www.w3.org/TR/2001/REC-SVG-20010904/DTD/svg10.dtd">
<?xml-stylesheet type="text/css" href="/assets/css/main.css" ?>
<svg version="1.0" xmlns="http://www.w3.org/2000/svg"
 width="184.000000pt" height="184.000000pt" viewBox="0 0 184.000000 184.000000"
 preserveAspectRatio="xMidYMid meet" class="logos">
<metadata>
Created by potrace 1.13, written by Peter Selinger 2001-2015
</metadata>
<g transform="translate(0.000000,184.000000) scale(0.100000,-0.100000)" stroke="none">
<path d="M589 1731 c-141 -45 -254 -178 -267 -314 l-5 -48 -63 -29 c-85 -38
-156 -107 -197 -189 -30 -61 -32 -73 -32 -166 0 -88 3 -107 27 -158 54 -115
130 -184 240 -219 110 -33 170 -17 170 47 0 38 -18 53 -74 60 -100 14 -171 62
-213 144 -33 67 -40 128 -21 193 32 111 118 182 233 194 l59 6 -1 92 c0 75 4
98 22 132 26 49 92 111 141 131 54 22 152 19 206 -6 41 -20 107 -83 131 -125
9 -16 15 -17 50 -7 87 24 160 10 239 -46 34 -24 52 -48 78 -103 l33 -70 51 6
c188 22 343 -158 290 -338 -29 -102 -119 -184 -218 -202 -46 -8 -68 -29 -68
-65 0 -45 31 -65 87 -57 116 15 246 116 301 233 24 52 27 70 27 163 0 92 -4
112 -26 160 -58 122 -180 214 -303 227 -53 5 -59 9 -86 47 -42 60 -98 111
-155 140 -56 27 -155 47 -198 39 -22 -4 -36 2 -70 34 -113 104 -252 138 -388
94z"/>
<path d="M605 1028 c-3 -8 -4 -132 -3 -278 l3 -265 27 -3 28 -3 2 248 3 248
248 3 248 2 -3 28 -3 27 -273 3 c-214 2 -274 0 -277 -10z"/>
<path d="M705 928 c-3 -8 -4 -132 -3 -278 l3 -265 73 -3 c39 -2 72 -1 72 1 0
3 -7 22 -16 43 -37 88 6 210 92 260 51 30 127 42 172 26 l29 -10 44 89 c23 49
46 89 50 89 4 0 14 -10 23 -22 15 -22 16 -21 13 27 l-2 50 -273 3 c-214 2
-274 0 -277 -10z"/>
<path d="M1154 670 c-68 -120 -68 -120 -100 -114 -37 7 -74 -21 -74 -56 0 -26
34 -60 60 -60 25 0 60 34 60 58 0 11 9 27 21 38 17 16 22 16 30 4 5 -8 8 -33
5 -54 -7 -56 -50 -97 -110 -103 -43 -5 -48 -3 -86 35 -34 33 -40 46 -40 81 0
61 48 111 113 118 34 4 51 12 58 26 23 42 -59 51 -131 15 -132 -67 -132 -249
0 -315 52 -27 96 -29 147 -8 50 21 72 42 94 90 22 46 23 98 5 140 -12 29 -11
31 41 74 29 24 53 48 53 53 0 13 -61 98 -71 98 -4 0 -37 -54 -75 -120z"/>
</g>
</svg>
