<?xml version="1.0" standalone="no"?>
<!DOCTYPE svg PUBLIC "-//W3C//DTD SVG 20010904//EN"
 "http://www.w3.org/TR/2001/REC-SVG-20010904/DTD/svg10.dtd">
<?xml-stylesheet type="text/css" href="/assets/css/main.css" ?>
<svg version="1.0" xmlns="http://www.w3.org/2000/svg"
 width="184.000000pt" height="184.000000pt" viewBox="0 0 184.000000 184.000000"
 preserveAspectRatio="xMidYMid meet" class="logos">
<metadata>
Created by potrace 1.13, written by Peter Selinger 2001-2015
</metadata>
<g transform="translate(0.000000,184.000000) scale(0.100000,-0.100000)" stroke="none">
<path d="M589 1731 c-141 -45 -254 -178 -267 -314 l-5 -48 -63 -29 c-85 -38
-156 -107 -197 -189 -30 -61 -32 -73 -32 -166 0 -88 3 -107 27 -158 54 -115
130 -184 240 -219 110 -33 170 -17 170 47 0 38 -18 53 -74 60 -100 14 -171 62
-213 144 -33 67 -40 128 -21 193 32 111 118 182 233 194 l59 6 -1 92 c0 75 4
98 22 132 26 49 92 111 141 131 54 22 152 19 206 -6 41 -20 107 -83 131 -125
9 -16 15 -17 50 -7 87 24 160 10 239 -46 34 -24 52 -48 78 -103 l33 -70 51 6
c188 22 343 -158 290 -338 -29 -102 -119 -184 -218 -202 -46 -8 -68 -29 -68
-65 0 -45 31 -65 87 -57 116 15 246 116 301 233 24 52 27 70 27 163 0 92 -4
112 -26 160 -58 122 -180 214 -303 227 -53 5 -59 9 -86 47 -42 60 -98 111
-155 140 -56 27 -155 47 -198 39 -22 -4 -36 2 -70 34 -113 104 -252 138 -388
94z"/>
<path d="M785 1090 c-211 -68 -315 -311 -221 -518 37 -80 122 -162 201 -191
75 -28 185 -28 260 0 128 48 224 181 233 325 6 93 -11 160 -58 234 -48 73
-115 124 -199 150 -78 25 -138 25 -216 0z m215 -106 c45 -19 106 -78 133 -129
17 -31 22 -58 22 -122 0 -45 -3 -84 -7 -88 -13 -13 -46 14 -41 33 7 27 -24 55
-54 47 -18 -4 -37 5 -83 40 -33 25 -60 54 -62 67 -7 50 -72 48 -74 -3 -1 -43
-22 -70 -49 -63 -18 4 -31 -1 -50 -20 -22 -22 -26 -33 -21 -64 5 -30 1 -43
-19 -67 -21 -25 -27 -28 -35 -15 -37 56 -40 174 -6 245 64 137 209 195 346
139z m30 -307 c4 -14 16 -24 38 -28 36 -7 62 -26 62 -43 0 -21 -61 -86 -106
-112 -33 -20 -64 -28 -114 -32 -60 -4 -76 -1 -123 21 -29 15 -65 39 -80 55
l-27 28 27 37 c23 30 34 36 65 37 50 0 77 37 61 80 -13 35 5 67 40 72 28 4
150 -84 157 -115z"/>
<path d="M1189 419 l-46 -46 74 -91 c43 -53 83 -94 97 -98 33 -8 84 21 92 51
11 44 -3 68 -88 150 l-83 80 -46 -46z"/>
</g>
</svg>
