<?xml version="1.0" standalone="no"?>
<!DOCTYPE svg PUBLIC "-//W3C//DTD SVG 20010904//EN"
 "http://www.w3.org/TR/2001/REC-SVG-20010904/DTD/svg10.dtd">
<svg version="1.0" xmlns="http://www.w3.org/2000/svg"
 width="184.000000pt" height="184.000000pt" viewBox="0 0 184.000000 184.000000"
 preserveAspectRatio="xMidYMid meet">
<metadata>
Created by potrace 1.13, written by Peter Selinger 2001-2015
</metadata>
<g transform="translate(0.000000,184.000000) scale(0.100000,-0.100000)"
fill="#000000" stroke="none">
<path d="M589 1731 c-141 -45 -254 -178 -267 -314 l-5 -48 -63 -29 c-85 -38
-156 -107 -197 -189 -30 -61 -32 -73 -32 -166 0 -88 3 -107 27 -158 54 -115
130 -184 240 -219 110 -33 170 -17 170 47 0 38 -18 53 -74 60 -100 14 -171 62
-213 144 -33 67 -40 128 -21 193 32 111 118 182 233 194 l59 6 -1 92 c0 75 4
98 22 132 26 49 92 111 141 131 54 22 152 19 206 -6 41 -20 107 -83 131 -125
9 -16 15 -17 50 -7 87 24 160 10 239 -46 34 -24 52 -48 78 -103 l33 -70 51 6
c188 22 343 -158 290 -338 -29 -102 -119 -184 -218 -202 -46 -8 -68 -29 -68
-65 0 -45 31 -65 87 -57 116 15 246 116 301 233 24 52 27 70 27 163 0 92 -4
112 -26 160 -58 122 -180 214 -303 227 -53 5 -59 9 -86 47 -42 60 -98 111
-155 140 -56 27 -155 47 -198 39 -22 -4 -36 2 -70 34 -113 104 -252 138 -388
94z"/>
<path d="M612 1028 c-7 -7 -12 -37 -12 -68 0 -31 5 -61 12 -68 17 -17 639 -17
656 0 16 16 16 120 0 136 -17 17 -639 17 -656 0z"/>
<path d="M612 828 c-7 -7 -12 -37 -12 -68 0 -31 5 -61 12 -68 8 -8 50 -12 125
-12 l113 0 46 35 c95 73 217 82 326 26 l58 -30 0 53 c0 28 -5 57 -12 64 -17
17 -639 17 -656 0z"/>
<path d="M1010 731 c-121 -39 -200 -156 -187 -276 6 -62 27 -107 71 -153 53
-57 101 -77 187 -77 67 0 81 3 124 30 26 17 62 47 78 68 l31 38 -23 22 c-22
22 -22 22 -33 2 -22 -40 -77 -82 -122 -95 -94 -26 -187 13 -234 100 -46 87
-13 207 72 259 55 34 134 39 190 11 52 -25 57 -36 21 -52 -14 -6 -25 -15 -25
-19 0 -5 37 -34 83 -64 l82 -55 3 101 c1 56 1 103 -1 106 -3 2 -16 -2 -31 -8
-23 -11 -29 -9 -49 8 -54 50 -170 76 -237 54z"/>
<path d="M612 628 c-7 -7 -12 -37 -12 -68 0 -31 5 -61 12 -68 7 -7 42 -12 88
-12 l75 0 16 63 c9 34 19 70 23 80 7 16 0 17 -91 17 -64 0 -103 -4 -111 -12z"/>
<path d="M612 428 c-16 -16 -16 -120 0 -136 8 -8 51 -12 126 -12 l114 0 -22
36 c-13 19 -28 54 -35 77 l-12 42 -79 3 c-53 2 -83 -1 -92 -10z"/>
</g>
</svg>
