<?xml version="1.0" standalone="no"?>
<!DOCTYPE svg PUBLIC "-//W3C//DTD SVG 20010904//EN"
 "http://www.w3.org/TR/2001/REC-SVG-20010904/DTD/svg10.dtd">
<svg version="1.0" xmlns="http://www.w3.org/2000/svg"
 width="184.000000pt" height="184.000000pt" viewBox="0 0 184.000000 184.000000"
 preserveAspectRatio="xMidYMid meet">
<metadata>
Created by potrace 1.13, written by Peter Selinger 2001-2015
</metadata>
<g transform="translate(0.000000,184.000000) scale(0.100000,-0.100000)"
fill="#000000" stroke="none">
<path d="M589 1731 c-141 -45 -254 -178 -267 -314 l-5 -48 -63 -29 c-85 -38
-156 -107 -197 -189 -30 -61 -32 -73 -32 -166 0 -88 3 -107 27 -158 54 -115
130 -184 240 -219 110 -33 170 -17 170 47 0 38 -18 53 -74 60 -100 14 -171 62
-213 144 -33 67 -40 128 -21 193 32 111 118 182 233 194 l59 6 -1 92 c0 75 4
98 22 132 26 49 92 111 141 131 54 22 152 19 206 -6 41 -20 107 -83 131 -125
9 -16 15 -17 50 -7 87 24 160 10 239 -46 34 -24 52 -48 78 -103 l33 -70 51 6
c188 22 343 -158 290 -338 -29 -102 -119 -184 -218 -202 -46 -8 -68 -29 -68
-65 0 -45 31 -65 87 -57 116 15 246 116 301 233 24 52 27 70 27 163 0 92 -4
112 -26 160 -58 122 -180 214 -303 227 -53 5 -59 9 -86 47 -42 60 -98 111
-155 140 -56 27 -155 47 -198 39 -22 -4 -36 2 -70 34 -113 104 -252 138 -388
94z"/>
<path d="M1120 903 l0 -157 40 39 c22 21 40 46 40 55 0 28 37 76 69 90 30 12
31 15 31 71 l0 59 -90 0 -90 0 0 -157z"/>
<path d="M1262 877 c-12 -13 -22 -34 -22 -48 0 -18 -26 -50 -93 -117 -51 -50
-99 -92 -106 -92 -8 0 -22 -7 -31 -15 -15 -13 -23 -11 -77 18 -33 17 -72 47
-87 65 -19 22 -37 32 -55 32 -28 0 -71 -36 -71 -59 0 -8 -34 -51 -76 -97 -65
-72 -80 -84 -108 -84 -39 0 -76 -35 -76 -71 0 -32 38 -69 71 -69 30 0 69 38
69 66 0 12 33 56 74 101 67 72 78 79 105 75 17 -2 38 1 46 8 13 10 26 7 78
-20 34 -18 76 -46 92 -61 17 -16 42 -29 56 -29 37 0 71 41 67 79 -2 27 8 41
82 116 63 63 91 85 111 85 32 0 69 38 69 71 0 32 -38 69 -71 69 -14 0 -35 -10
-47 -23z"/>
<path d="M560 693 l0 -166 57 63 c32 35 65 81 75 102 9 21 24 41 33 44 11 5
15 21 15 65 l0 59 -90 0 -90 0 0 -167z"/>
<path d="M1226 648 c-45 -49 -66 -80 -66 -98 0 -14 -9 -40 -20 -58 -17 -28
-20 -50 -20 -152 l0 -120 90 0 90 0 0 250 c0 138 -2 250 -4 250 -2 0 -34 -32
-70 -72z"/>
<path d="M840 390 l0 -170 90 0 90 0 0 114 c0 106 -1 115 -20 121 -11 4 -28
17 -36 30 -16 24 -93 75 -113 75 -7 0 -11 -56 -11 -170z"/>
<path d="M686 466 c-25 -29 -46 -59 -46 -67 0 -24 -38 -77 -59 -84 -17 -5 -21
-15 -21 -51 l0 -44 90 0 90 0 0 150 c0 83 -2 150 -4 150 -3 0 -25 -24 -50 -54z"/>
</g>
</svg>
