<?xml version="1.0" standalone="no"?>
<!DOCTYPE svg PUBLIC "-//W3C//DTD SVG 20010904//EN"
 "http://www.w3.org/TR/2001/REC-SVG-20010904/DTD/svg10.dtd">
<svg version="1.0" xmlns="http://www.w3.org/2000/svg"
 width="184.000000pt" height="184.000000pt" viewBox="0 0 184.000000 184.000000"
 preserveAspectRatio="xMidYMid meet">
<metadata>
Created by potrace 1.13, written by Peter Selinger 2001-2015
</metadata>
<g transform="translate(0.000000,184.000000) scale(0.100000,-0.100000)"
fill="#000000" stroke="none">
<path d="M589 1731 c-141 -45 -254 -178 -267 -314 l-5 -48 -63 -29 c-85 -38
-156 -107 -197 -189 -30 -61 -32 -73 -32 -166 0 -88 3 -107 27 -158 54 -115
130 -184 240 -219 110 -33 170 -17 170 47 0 38 -18 53 -74 60 -100 14 -171 62
-213 144 -33 67 -40 128 -21 193 32 111 118 182 233 194 l59 6 -1 92 c0 75 4
98 22 132 26 49 92 111 141 131 54 22 152 19 206 -6 41 -20 107 -83 131 -125
9 -16 15 -17 50 -7 87 24 160 10 239 -46 34 -24 52 -48 78 -103 l33 -70 51 6
c188 22 343 -158 290 -338 -29 -102 -119 -184 -218 -202 -46 -8 -68 -29 -68
-65 0 -45 31 -65 87 -57 116 15 246 116 301 233 24 52 27 70 27 163 0 92 -4
112 -26 160 -58 122 -180 214 -303 227 -53 5 -59 9 -86 47 -42 60 -98 111
-155 140 -56 27 -155 47 -198 39 -22 -4 -36 2 -70 34 -113 104 -252 138 -388
94z"/>
<path d="M887 970 c-3 -11 -13 -20 -24 -20 -31 -1 -99 -36 -143 -76 -54 -49
-84 -97 -104 -165 l-16 -54 32 34 31 35 23 -29 c13 -16 24 -27 26 -25 2 3 15
28 29 55 25 49 80 97 126 110 16 4 22 1 25 -14 3 -18 9 -14 56 26 l53 46 -38
39 c-52 54 -69 63 -76 38z"/>
<path d="M1018 927 l32 -33 -26 -25 -25 -26 48 -24 c71 -37 147 -159 98 -159
-8 0 -15 -3 -15 -6 0 -10 83 -105 90 -102 4 2 26 25 50 52 39 46 41 50 22 57
-12 5 -22 20 -26 41 -20 105 -128 217 -240 247 l-39 10 31 -32z"/>
<path d="M612 618 c-40 -48 -42 -53 -24 -59 12 -5 22 -21 26 -41 20 -105 128
-217 240 -247 l39 -10 -31 32 -32 33 26 25 25 26 -48 24 c-71 37 -147 159 -98
159 8 0 15 3 15 6 0 8 -82 104 -89 104 -3 0 -25 -24 -49 -52z"/>
<path d="M1244 529 l-29 -30 -22 27 c-12 16 -23 26 -25 24 -2 -3 -15 -27 -29
-55 -25 -49 -80 -97 -126 -110 -16 -4 -22 -1 -25 14 -3 18 -9 15 -57 -27 l-53
-47 52 -49 c51 -48 54 -49 61 -28 5 12 16 22 26 22 54 1 164 80 209 151 19 30
58 139 50 139 -1 0 -15 -14 -32 -31z"/>
</g>
</svg>
