<?xml version="1.0" standalone="no"?>
<!DOCTYPE svg PUBLIC "-//W3C//DTD SVG 20010904//EN"
 "http://www.w3.org/TR/2001/REC-SVG-20010904/DTD/svg10.dtd">
<svg version="1.0" xmlns="http://www.w3.org/2000/svg"
 width="184.000000pt" height="184.000000pt" viewBox="0 0 184.000000 184.000000"
 preserveAspectRatio="xMidYMid meet">
<metadata>
Created by potrace 1.13, written by Peter Selinger 2001-2015
</metadata>
<g transform="translate(0.000000,184.000000) scale(0.100000,-0.100000)"
fill="#000000" stroke="none">
<path d="M589 1731 c-141 -45 -254 -178 -267 -314 l-5 -48 -63 -29 c-85 -38
-156 -107 -197 -189 -30 -61 -32 -73 -32 -166 0 -88 3 -107 27 -158 54 -115
130 -184 240 -219 110 -33 170 -17 170 47 0 38 -18 53 -74 60 -100 14 -171 62
-213 144 -33 67 -40 128 -21 193 32 111 118 182 233 194 l59 6 -1 92 c0 75 4
98 22 132 26 49 92 111 141 131 54 22 152 19 206 -6 41 -20 107 -83 131 -125
9 -16 15 -17 50 -7 87 24 160 10 239 -46 34 -24 52 -48 78 -103 l33 -70 51 6
c188 22 343 -158 290 -338 -29 -102 -119 -184 -218 -202 -46 -8 -68 -29 -68
-65 0 -45 31 -65 87 -57 116 15 246 116 301 233 24 52 27 70 27 163 0 92 -4
112 -26 160 -58 122 -180 214 -303 227 -53 5 -59 9 -86 47 -42 60 -98 111
-155 140 -56 27 -155 47 -198 39 -22 -4 -36 2 -70 34 -113 104 -252 138 -388
94z"/>
<path d="M765 915 c-53 -19 -102 -74 -116 -129 -8 -34 -18 -47 -39 -56 -59
-24 -110 -105 -110 -172 1 -46 31 -109 68 -140 62 -52 199 -59 190 -11 -2 13
-18 20 -57 25 -67 10 -106 33 -126 74 -34 73 -3 146 75 175 38 14 45 21 48 45
6 60 33 103 79 125 38 19 50 20 82 11 20 -7 50 -25 66 -42 24 -25 34 -29 60
-24 47 9 100 -18 130 -65 23 -37 29 -41 67 -41 36 0 47 -6 85 -46 26 -26 51
-44 61 -42 67 13 -50 147 -129 148 -16 0 -33 10 -48 31 -30 40 -76 67 -130 75
-24 4 -65 19 -90 35 -57 35 -113 44 -166 24z"/>
<path d="M1013 605 c-36 -15 -73 -67 -73 -102 0 -14 -12 -27 -37 -40 -78 -40
-94 -145 -31 -198 l30 -25 245 0 245 0 34 34 c28 28 34 41 34 77 -1 24 -6 54
-14 67 -17 32 -65 62 -98 62 -17 0 -28 5 -28 13 0 7 -14 26 -30 42 -24 23 -41
30 -76 31 -25 1 -53 9 -62 17 -20 18 -66 37 -90 37 -9 -1 -32 -7 -49 -15z"/>
</g>
</svg>
