<?xml version="1.0" standalone="no"?>
<!DOCTYPE svg PUBLIC "-//W3C//DTD SVG 20010904//EN"
 "http://www.w3.org/TR/2001/REC-SVG-20010904/DTD/svg10.dtd">
<svg version="1.0" xmlns="http://www.w3.org/2000/svg"
 width="184.000000pt" height="184.000000pt" viewBox="0 0 184.000000 184.000000"
 preserveAspectRatio="xMidYMid meet">
<metadata>
Created by potrace 1.13, written by Peter Selinger 2001-2015
</metadata>
<g transform="translate(0.000000,184.000000) scale(0.100000,-0.100000)"
fill="#000000" stroke="none">
<path d="M589 1731 c-141 -45 -254 -178 -267 -314 l-5 -48 -63 -29 c-85 -38
-156 -107 -197 -189 -30 -61 -32 -73 -32 -166 0 -88 3 -107 27 -158 54 -115
130 -184 240 -219 110 -33 170 -17 170 47 0 38 -18 53 -74 60 -100 14 -171 62
-213 144 -33 67 -40 128 -21 193 32 111 118 182 233 194 l59 6 -1 92 c0 75 4
98 22 132 26 49 92 111 141 131 54 22 152 19 206 -6 41 -20 107 -83 131 -125
9 -16 15 -17 50 -7 87 24 160 10 239 -46 34 -24 52 -48 78 -103 l33 -70 51 6
c188 22 343 -158 290 -338 -29 -102 -119 -184 -218 -202 -46 -8 -68 -29 -68
-65 0 -45 31 -65 87 -57 116 15 246 116 301 233 24 52 27 70 27 163 0 92 -4
112 -26 160 -58 122 -180 214 -303 227 -53 5 -59 9 -86 47 -42 60 -98 111
-155 140 -56 27 -155 47 -198 39 -22 -4 -36 2 -70 34 -113 104 -252 138 -388
94z"/>
<path d="M749 784 c-116 -57 -188 -99 -183 -104 5 -5 92 -52 194 -105 l184
-96 173 88 c95 48 182 95 195 104 21 17 18 19 -170 113 -105 53 -194 96 -196
96 -2 0 -91 -43 -197 -96z"/>
<path d="M606 567 c-25 -11 -46 -22 -46 -26 0 -8 365 -201 380 -201 5 0 96 43
202 96 l191 96 -46 27 -47 27 -148 -75 -148 -74 -146 75 -147 75 -45 -20z"/>
<path d="M608 430 c-20 -11 -40 -24 -43 -30 -4 -6 74 -50 186 -105 l192 -94
191 96 c105 52 193 97 194 98 5 5 -74 45 -87 45 -6 0 -76 -31 -157 -69 l-147
-69 -142 74 c-78 41 -144 74 -146 74 -2 -1 -21 -10 -41 -20z"/>
</g>
</svg>
