<?xml version="1.0" standalone="no"?>
<!DOCTYPE svg PUBLIC "-//W3C//DTD SVG 20010904//EN"
 "http://www.w3.org/TR/2001/REC-SVG-20010904/DTD/svg10.dtd">
<?xml-stylesheet type="text/css" href="/assets/css/main.css" ?>
<svg version="1.0" xmlns="http://www.w3.org/2000/svg"
 width="184.000000pt" height="184.000000pt" viewBox="0 0 184.000000 184.000000"
 preserveAspectRatio="xMidYMid meet" class="logos">
<metadata>
Created by potrace 1.13, written by Peter Selinger 2001-2015
</metadata>
<g transform="translate(0.000000,184.000000) scale(0.100000,-0.100000)" stroke="none">
<path d="M589 1731 c-141 -45 -254 -178 -267 -314 l-5 -48 -63 -29 c-85 -38
-156 -107 -197 -189 -30 -61 -32 -73 -32 -166 0 -88 3 -107 27 -158 54 -115
130 -184 240 -219 110 -33 170 -17 170 47 0 38 -18 53 -74 60 -100 14 -171 62
-213 144 -33 67 -40 128 -21 193 32 111 118 182 233 194 l59 6 -1 92 c0 75 4
98 22 132 26 49 92 111 141 131 54 22 152 19 206 -6 41 -20 107 -83 131 -125
9 -16 15 -17 50 -7 87 24 160 10 239 -46 34 -24 52 -48 78 -103 l33 -70 51 6
c188 22 343 -158 290 -338 -29 -102 -119 -184 -218 -202 -46 -8 -68 -29 -68
-65 0 -45 31 -65 87 -57 116 15 246 116 301 233 24 52 27 70 27 163 0 92 -4
112 -26 160 -58 122 -180 214 -303 227 -53 5 -59 9 -86 47 -42 60 -98 111
-155 140 -56 27 -155 47 -198 39 -22 -4 -36 2 -70 34 -113 104 -252 138 -388
94z"/>
<path d="M572 908 c-7 -7 -12 -19 -12 -27 0 -8 -19 -35 -42 -58 -33 -33 -39
-46 -30 -55 9 -9 19 -7 42 10 l30 23 0 -120 0 -120 -37 -3 c-33 -3 -38 -6 -38
-28 0 -22 5 -25 38 -28 l37 -3 0 -68 c0 -37 -5 -72 -11 -78 -21 -21 2 -33 61
-33 59 0 82 12 61 33 -6 6 -11 42 -11 79 l0 68 260 0 260 0 0 -68 c0 -37 -5
-73 -11 -79 -21 -21 2 -33 61 -33 59 0 82 12 61 33 -6 6 -11 41 -11 78 l0 68
38 3 c32 3 37 6 37 28 0 22 -5 25 -37 28 l-38 3 0 120 0 120 30 -23 c23 -17
33 -19 42 -10 9 9 3 22 -30 55 -23 23 -42 50 -42 58 0 23 -21 39 -50 39 -33 0
-50 -17 -50 -51 0 -34 -95 -125 -167 -160 -95 -47 -184 -23 -294 78 -44 41
-59 62 -59 82 0 15 -5 32 -12 39 -15 15 -61 15 -76 0z"/>
</g>
</svg>
