<?xml version="1.0" standalone="no"?>
<!DOCTYPE svg PUBLIC "-//W3C//DTD SVG 20010904//EN"
 "http://www.w3.org/TR/2001/REC-SVG-20010904/DTD/svg10.dtd">
<svg version="1.0" xmlns="http://www.w3.org/2000/svg"
 width="184.000000pt" height="184.000000pt" viewBox="0 0 184.000000 184.000000"
 preserveAspectRatio="xMidYMid meet">
<metadata>
Created by potrace 1.13, written by Peter Selinger 2001-2015
</metadata>
<g transform="translate(0.000000,184.000000) scale(0.100000,-0.100000)"
fill="#000000" stroke="none">
<path d="M589 1731 c-141 -45 -254 -178 -267 -314 l-5 -48 -63 -29 c-85 -38
-156 -107 -197 -189 -30 -61 -32 -73 -32 -166 0 -88 3 -107 27 -158 54 -115
130 -184 240 -219 110 -33 170 -17 170 47 0 38 -18 53 -74 60 -100 14 -171 62
-213 144 -33 67 -40 128 -21 193 32 111 118 182 233 194 l59 6 -1 92 c0 75 4
98 22 132 26 49 92 111 141 131 54 22 152 19 206 -6 41 -20 107 -83 131 -125
9 -16 15 -17 50 -7 87 24 160 10 239 -46 34 -24 52 -48 78 -103 l33 -70 51 6
c188 22 343 -158 290 -338 -29 -102 -119 -184 -218 -202 -46 -8 -68 -29 -68
-65 0 -45 31 -65 87 -57 116 15 246 116 301 233 24 52 27 70 27 163 0 92 -4
112 -26 160 -58 122 -180 214 -303 227 -53 5 -59 9 -86 47 -42 60 -98 111
-155 140 -56 27 -155 47 -198 39 -22 -4 -36 2 -70 34 -113 104 -252 138 -388
94z"/>
<path d="M878 984 c-31 -17 -58 -61 -58 -97 0 -37 41 -90 78 -101 47 -13 92 3
119 43 27 40 29 71 8 111 -28 54 -94 74 -147 44z"/>
<path d="M605 895 c-16 -15 -25 -36 -25 -55 0 -19 9 -40 25 -55 15 -16 36 -25
55 -25 19 0 40 9 55 25 16 15 25 36 25 55 0 19 -9 40 -25 55 -15 16 -36 25
-55 25 -19 0 -40 -9 -55 -25z"/>
<path d="M524 727 c-2 -7 -3 -60 -2 -118 l3 -104 68 -3 67 -3 0 75 c0 52 -6
88 -20 120 -19 45 -20 46 -65 46 -29 0 -48 -5 -51 -13z"/>
<path d="M724 727 c-2 -7 -3 -82 -2 -167 l3 -155 138 -3 c122 -2 137 -1 137
14 0 50 27 102 83 157 58 57 58 58 55 110 l-3 52 -58 3 -57 3 -41 -65 c-23
-37 -45 -66 -49 -66 -4 0 -26 29 -49 65 l-40 65 -56 0 c-36 0 -57 -5 -61 -13z"/>
<path d="M1260 521 l0 -101 101 0 102 0 -6 35 c-13 77 -84 149 -161 162 l-36
6 0 -102z"/>
<path d="M1155 581 c-138 -62 -153 -263 -25 -347 100 -67 242 -27 291 81 30
66 31 65 -91 65 l-110 0 0 110 c0 122 1 121 -65 91z"/>
</g>
</svg>
