<?xml version="1.0" standalone="no"?>
<!DOCTYPE svg PUBLIC "-//W3C//DTD SVG 20010904//EN"
 "http://www.w3.org/TR/2001/REC-SVG-20010904/DTD/svg10.dtd">
<?xml-stylesheet type="text/css" href="/assets/css/main.css" ?>
<svg version="1.0" xmlns="http://www.w3.org/2000/svg"
 width="184.000000pt" height="184.000000pt" viewBox="0 0 184.000000 184.000000"
 preserveAspectRatio="xMidYMid meet" class="logos">
<metadata>
Created by potrace 1.13, written by Peter Selinger 2001-2015
</metadata>
<g transform="translate(0.000000,184.000000) scale(0.100000,-0.100000)" stroke="none">
<path d="M589 1731 c-141 -45 -254 -178 -267 -314 l-5 -48 -63 -29 c-85 -38
-156 -107 -197 -189 -30 -61 -32 -73 -32 -166 0 -88 3 -107 27 -158 54 -115
130 -184 240 -219 110 -33 170 -17 170 47 0 38 -18 53 -74 60 -100 14 -171 62
-213 144 -33 67 -40 128 -21 193 32 111 118 182 233 194 l59 6 -1 92 c0 75 4
98 22 132 26 49 92 111 141 131 54 22 152 19 206 -6 41 -20 107 -83 131 -125
9 -16 15 -17 50 -7 87 24 160 10 239 -46 34 -24 52 -48 78 -103 l33 -70 51 6
c188 22 343 -158 290 -338 -29 -102 -119 -184 -218 -202 -46 -8 -68 -29 -68
-65 0 -45 31 -65 87 -57 116 15 246 116 301 233 24 52 27 70 27 163 0 92 -4
112 -26 160 -58 122 -180 214 -303 227 -53 5 -59 9 -86 47 -42 60 -98 111
-155 140 -56 27 -155 47 -198 39 -22 -4 -36 2 -70 34 -113 104 -252 138 -388
94z"/>
<path d="M600 757 l0 -223 -60 -59 c-33 -33 -60 -63 -60 -66 0 -4 12 -21 26
-38 l26 -31 373 0 373 0 31 29 c17 16 31 35 31 43 0 7 -27 40 -60 73 l-60 59
0 218 0 218 -310 0 -310 0 0 -223z m580 -7 l0 -190 -270 0 -270 0 0 190 0 190
270 0 270 0 0 -190z"/>
<path d="M1007 886 c-4 -9 -14 -12 -27 -9 -18 5 -21 2 -18 -13 2 -10 -3 -25
-12 -32 -13 -11 -13 -13 2 -22 10 -6 14 -18 10 -32 -4 -18 -2 -20 16 -16 14 4
26 0 32 -10 9 -15 11 -15 22 -2 7 9 22 14 32 12 15 -3 18 0 13 17 -3 13 1 25
11 31 15 9 15 11 2 22 -9 7 -14 22 -12 32 3 15 0 18 -16 14 -13 -4 -23 0 -26
8 -7 18 -22 18 -29 0z"/>
<path d="M820 820 c0 -16 -6 -20 -32 -18 -31 3 -33 1 -30 -29 2 -27 -2 -33
-18 -33 -13 0 -20 -7 -20 -20 0 -13 7 -20 20 -20 19 0 20 -4 14 -36 l-7 -37
37 7 c32 6 36 5 36 -14 0 -13 7 -20 20 -20 13 0 20 7 20 20 0 19 4 20 36 14
l37 -7 -7 37 c-6 32 -5 36 14 36 13 0 20 7 20 20 0 13 -7 20 -20 20 -16 0 -20
6 -18 33 3 30 1 32 -29 29 -27 -2 -33 2 -33 18 0 13 -7 20 -20 20 -13 0 -20
-7 -20 -20z"/>
</g>
</svg>
