<?xml version="1.0" standalone="no"?>
<!DOCTYPE svg PUBLIC "-//W3C//DTD SVG 20010904//EN"
 "http://www.w3.org/TR/2001/REC-SVG-20010904/DTD/svg10.dtd">
<?xml-stylesheet type="text/css" href="/assets/css/main.css" ?>
<svg version="1.0" xmlns="http://www.w3.org/2000/svg"
 width="184.000000pt" height="184.000000pt" viewBox="0 0 184.000000 184.000000"
 preserveAspectRatio="xMidYMid meet" class="logos">
<metadata>
Created by potrace 1.13, written by Peter Selinger 2001-2015
</metadata>
<g transform="translate(0.000000,184.000000) scale(0.100000,-0.100000)" stroke="none">
<path d="M589 1731 c-141 -45 -254 -178 -267 -314 l-5 -48 -63 -29 c-85 -38
-156 -107 -197 -189 -30 -61 -32 -73 -32 -166 0 -88 3 -107 27 -158 54 -115
130 -184 240 -219 110 -33 170 -17 170 47 0 38 -18 53 -74 60 -100 14 -171 62
-213 144 -33 67 -40 128 -21 193 32 111 118 182 233 194 l59 6 -1 92 c0 75 4
98 22 132 26 49 92 111 141 131 54 22 152 19 206 -6 41 -20 107 -83 131 -125
9 -16 15 -17 50 -7 87 24 160 10 239 -46 34 -24 52 -48 78 -103 l33 -70 51 6
c188 22 343 -158 290 -338 -29 -102 -119 -184 -218 -202 -46 -8 -68 -29 -68
-65 0 -45 31 -65 87 -57 116 15 246 116 301 233 24 52 27 70 27 163 0 92 -4
112 -26 160 -58 122 -180 214 -303 227 -53 5 -59 9 -86 47 -42 60 -98 111
-155 140 -56 27 -155 47 -198 39 -22 -4 -36 2 -70 34 -113 104 -252 138 -388
94z"/>
<path d="M1183 1054 c-22 -23 -25 -31 -19 -73 4 -32 2 -53 -7 -66 -13 -16 -19
-17 -60 -7 -108 28 -196 4 -273 -73 -43 -43 -57 -65 -70 -114 -20 -70 -33 -75
-74 -31 -52 56 -140 24 -140 -50 0 -74 88 -106 140 -50 41 44 54 39 74 -31 13
-49 27 -71 70 -114 77 -77 165 -101 273 -73 41 10 47 9 60 -7 9 -13 11 -34 7
-66 -6 -42 -3 -50 19 -73 34 -34 79 -34 112 -1 51 50 15 135 -57 135 -23 0
-37 7 -46 21 -12 18 -8 25 32 71 100 111 100 265 0 376 -40 46 -44 53 -32 71
9 14 23 21 46 21 43 0 82 38 82 80 0 71 -86 105 -137 54z m-55 -316 c46 -3 47
-3 47 -38 0 -35 0 -35 -47 -38 -47 -3 -48 -4 -48 -35 l0 -32 -52 52 -53 53 50
50 50 51 3 -30 c3 -28 6 -30 50 -33z m-116 -210 l-52 -53 0 32 c0 31 -1 32
-47 35 -48 3 -48 3 -48 38 0 35 0 35 48 38 46 3 47 4 47 35 l0 32 52 -53 53
-52 -53 -52z"/>
</g>
</svg>
