<?xml version="1.0" standalone="no"?>
<!DOCTYPE svg PUBLIC "-//W3C//DTD SVG 20010904//EN"
 "http://www.w3.org/TR/2001/REC-SVG-20010904/DTD/svg10.dtd">
<svg version="1.0" xmlns="http://www.w3.org/2000/svg"
 width="184.000000pt" height="184.000000pt" viewBox="0 0 184.000000 184.000000"
 preserveAspectRatio="xMidYMid meet">
<metadata>
Created by potrace 1.13, written by Peter Selinger 2001-2015
</metadata>
<g transform="translate(0.000000,184.000000) scale(0.100000,-0.100000)"
fill="#000000" stroke="none">
<path d="M589 1731 c-141 -45 -254 -178 -267 -314 l-5 -48 -63 -29 c-85 -38
-156 -107 -197 -189 -30 -61 -32 -73 -32 -166 0 -88 3 -107 27 -158 54 -115
130 -184 240 -219 110 -33 170 -17 170 47 0 38 -18 53 -74 60 -100 14 -171 62
-213 144 -33 67 -40 128 -21 193 32 111 118 182 233 194 l59 6 -1 92 c0 75 4
98 22 132 26 49 92 111 141 131 54 22 152 19 206 -6 41 -20 107 -83 131 -125
9 -16 15 -17 50 -7 87 24 160 10 239 -46 34 -24 52 -48 78 -103 l33 -70 51 6
c188 22 343 -158 290 -338 -29 -102 -119 -184 -218 -202 -46 -8 -68 -29 -68
-65 0 -45 31 -65 87 -57 116 15 246 116 301 233 24 52 27 70 27 163 0 92 -4
112 -26 160 -58 122 -180 214 -303 227 -53 5 -59 9 -86 47 -42 60 -98 111
-155 140 -56 27 -155 47 -198 39 -22 -4 -36 2 -70 34 -113 104 -252 138 -388
94z"/>
<path d="M1135 1066 c-85 -39 -118 -136 -75 -220 19 -38 19 -39 0 -76 -19 -36
-21 -38 -60 -33 -22 3 -53 0 -69 -7 -29 -12 -33 -10 -104 49 -64 52 -74 64
-70 86 11 55 -40 115 -97 115 -52 0 -100 -49 -100 -101 0 -26 18 -60 41 -79
16 -12 17 -21 10 -50 -5 -19 -12 -47 -15 -62 -4 -19 -17 -32 -41 -42 -42 -18
-75 -69 -75 -116 0 -134 189 -176 247 -56 13 28 25 37 70 50 l55 15 23 -27
c14 -15 22 -34 20 -42 -2 -8 -7 -27 -11 -42 -3 -15 -14 -30 -25 -33 -28 -9
-59 -54 -59 -87 0 -19 10 -40 29 -59 40 -39 82 -39 122 0 35 35 38 77 8 114
-15 21 -19 34 -13 62 5 31 10 35 36 35 16 0 42 6 57 14 27 15 29 14 76 -34 45
-45 49 -53 49 -100 1 -42 6 -54 34 -82 28 -28 39 -33 82 -33 43 0 54 5 82 33
28 28 33 39 33 82 0 40 -5 54 -29 79 -35 36 -81 47 -130 31 -36 -12 -37 -11
-80 37 -42 45 -44 51 -39 94 4 32 0 55 -12 79 -16 30 -16 35 0 70 l16 36 69 0
c54 -1 74 3 96 20 53 39 69 71 69 134 0 63 -16 95 -67 133 -34 25 -113 32
-153 13z m-353 -328 c35 -28 66 -54 70 -57 4 -4 1 -24 -6 -45 -12 -35 -19 -41
-62 -54 -40 -11 -49 -12 -53 -1 -5 17 -52 64 -68 70 -10 3 -10 16 1 60 22 98
30 99 118 27z m253 -83 c50 -49 15 -135 -55 -135 -41 0 -80 39 -80 80 0 19 9
40 25 55 15 16 36 25 55 25 19 0 40 -9 55 -25z"/>
</g>
</svg>
