<?xml version="1.0" standalone="no"?>
<!DOCTYPE svg PUBLIC "-//W3C//DTD SVG 20010904//EN"
 "http://www.w3.org/TR/2001/REC-SVG-20010904/DTD/svg10.dtd">
<?xml-stylesheet type="text/css" href="/assets/css/main.css" ?>
<svg version="1.0" xmlns="http://www.w3.org/2000/svg"
 width="184.000000pt" height="184.000000pt" viewBox="0 0 184.000000 184.000000"
 preserveAspectRatio="xMidYMid meet" class="logos">
<metadata>
Created by potrace 1.13, written by Peter Selinger 2001-2015
</metadata>
<g transform="translate(0.000000,184.000000) scale(0.100000,-0.100000)" stroke="none">
<path d="M589 1751 c-141 -45 -254 -178 -267 -314 l-5 -48 -63 -29 c-85 -38
-156 -107 -197 -189 -30 -61 -32 -73 -32 -166 0 -88 3 -107 27 -158 54 -115
130 -184 240 -219 110 -33 170 -17 170 47 0 38 -18 53 -74 60 -100 14 -171 62
-213 144 -33 67 -40 128 -21 193 32 111 118 182 233 194 l59 6 -1 92 c0 75 4
98 22 132 26 49 92 111 141 131 54 22 152 19 206 -6 41 -20 107 -83 131 -125
9 -16 15 -17 50 -7 87 24 160 10 239 -46 34 -24 52 -48 78 -103 l33 -70 51 6
c188 22 343 -158 290 -338 -29 -102 -119 -184 -218 -202 -46 -8 -68 -29 -68
-65 0 -45 31 -65 87 -57 116 15 246 116 301 233 24 52 27 70 27 163 0 92 -4
112 -26 160 -58 122 -180 214 -303 227 -53 5 -59 9 -86 47 -42 60 -98 111
-155 140 -56 27 -155 47 -198 39 -22 -4 -36 2 -70 34 -113 104 -252 138 -388
94z"/>
<path d="M567 1134 c-4 -4 -7 -81 -7 -171 l0 -163 90 0 90 0 0 80 0 80 -70 0
c-63 0 -70 2 -70 20 0 18 7 20 70 20 63 0 70 2 70 20 0 18 -7 20 -70 20 -63 0
-70 2 -70 20 0 19 7 20 101 20 l100 0 -3 28 -3 27 -111 3 c-60 1 -113 -1 -117
-4z"/>
<path d="M792 1028 c-9 -9 -12 -72 -12 -220 l0 -208 180 0 180 0 0 208 c0 148
-3 211 -12 220 -17 17 -319 17 -336 0z m303 -98 l0 -25 -133 -3 c-111 -2 -133
0 -138 13 -3 8 -3 22 0 30 5 13 27 15 138 13 l133 -3 0 -25z m0 -100 l0 -25
-133 -3 c-111 -2 -133 0 -138 13 -3 8 -3 22 0 30 5 13 27 15 138 13 l133 -3 0
-25z"/>
<path d="M562 723 l3 -58 88 -3 87 -3 0 61 0 60 -90 0 -91 0 3 -57z"/>
<path d="M1240 480 l0 -120 120 0 c134 0 130 -3 108 74 -16 55 -99 138 -154
154 -77 22 -74 26 -74 -108z m112 45 c38 -26 78 -81 78 -109 0 -13 -12 -16
-75 -16 l-75 0 0 75 c0 86 9 93 72 50z"/>
<path d="M780 492 c0 -40 5 -73 12 -80 7 -7 44 -12 94 -12 72 0 82 2 87 19 3
14 -1 21 -16 23 -29 4 -45 33 -31 56 15 23 42 27 63 8 16 -15 20 -13 51 19
l34 35 -147 0 -147 0 0 -68z"/>
<path d="M1119 532 c-150 -78 -158 -288 -15 -376 103 -64 237 -35 299 65 15
25 30 62 34 82 l6 37 -112 0 -111 0 0 110 c0 109 0 110 -24 110 -13 0 -48 -13
-77 -28z"/>
</g>
</svg>
