<?xml version="1.0" standalone="no"?>
<!DOCTYPE svg PUBLIC "-//W3C//DTD SVG 20010904//EN"
 "http://www.w3.org/TR/2001/REC-SVG-20010904/DTD/svg10.dtd">
<?xml-stylesheet type="text/css" href="/assets/css/main.css" ?>
<svg version="1.0" xmlns="http://www.w3.org/2000/svg"
 width="184.000000pt" height="184.000000pt" viewBox="0 0 184.000000 184.000000"
 preserveAspectRatio="xMidYMid meet" class="logos">
<metadata>
Created by potrace 1.13, written by Peter Selinger 2001-2015
</metadata>
<g transform="translate(0.000000,184.000000) scale(0.100000,-0.100000)" stroke="none">
<path d="M589 1731 c-141 -45 -254 -178 -267 -314 l-5 -48 -63 -29 c-85 -38
-156 -107 -197 -189 -30 -61 -32 -73 -32 -166 0 -88 3 -107 27 -158 54 -115
130 -184 240 -219 110 -33 170 -17 170 47 0 38 -18 53 -74 60 -100 14 -171 62
-213 144 -33 67 -40 128 -21 193 32 111 118 182 233 194 l59 6 -1 92 c0 75 4
98 22 132 26 49 92 111 141 131 54 22 152 19 206 -6 41 -20 107 -83 131 -125
9 -16 15 -17 50 -7 87 24 160 10 239 -46 34 -24 52 -48 78 -103 l33 -70 51 6
c188 22 343 -158 290 -338 -29 -102 -119 -184 -218 -202 -46 -8 -68 -29 -68
-65 0 -45 31 -65 87 -57 116 15 246 116 301 233 24 52 27 70 27 163 0 92 -4
112 -26 160 -58 122 -180 214 -303 227 -53 5 -59 9 -86 47 -42 60 -98 111
-155 140 -56 27 -155 47 -198 39 -22 -4 -36 2 -70 34 -113 104 -252 138 -388
94z"/>
<path d="M970 1262 c0 -59 -17 -86 -99 -163 -101 -96 -106 -139 -20 -221 27
-27 53 -48 59 -48 5 0 -5 23 -22 52 -49 79 -44 106 29 181 33 34 68 73 77 87
22 34 21 102 -4 131 l-19 24 -1 -43z"/>
<path d="M1048 1116 c-114 -41 -170 -105 -148 -171 6 -18 17 -38 25 -45 19
-16 28 -60 14 -76 -20 -24 7 -16 40 12 37 30 39 53 10 104 -31 54 -20 81 51
137 76 59 77 64 8 39z"/>
<path d="M701 827 c-45 -16 -49 -32 -12 -51 58 -31 341 -17 370 18 8 9 -24 11
-146 8 -112 -3 -154 -1 -149 7 4 6 21 15 39 20 30 9 29 9 -18 10 -27 0 -65 -5
-84 -12z"/>
<path d="M742 734 c-39 -27 -2 -48 120 -67 32 -5 125 8 164 23 25 10 26 12 11
28 -15 16 -26 17 -103 9 -89 -9 -154 -3 -154 13 0 14 -12 12 -38 -6z"/>
<path d="M626 579 c-53 -42 -25 -56 137 -69 188 -15 373 9 401 53 6 9 7 20 3
24 -5 4 -12 2 -16 -5 -18 -29 -289 -47 -424 -28 -62 8 -65 14 -14 33 l32 11
-46 1 c-33 1 -54 -5 -73 -20z"/>
<path d="M1147 528 c-69 -26 -216 -40 -331 -32 -70 4 -97 3 -92 -5 23 -36 285
-49 387 -18 53 16 95 46 88 64 -2 5 -26 1 -52 -9z"/>
<path d="M526 389 c-39 -31 -37 -83 5 -108 17 -11 46 -22 64 -25 69 -13 73
-66 6 -66 -30 0 -43 5 -51 20 -13 24 -60 28 -60 5 0 -9 11 -27 25 -40 19 -20
34 -25 75 -25 79 0 110 21 110 76 0 40 -25 62 -90 79 -62 16 -68 21 -54 43 16
25 50 26 73 3 12 -12 32 -21 46 -21 29 0 29 1 14 33 -22 49 -115 64 -163 26z"/>
<path d="M1176 389 c-39 -31 -37 -83 5 -108 17 -11 46 -22 64 -25 69 -13 73
-66 6 -66 -30 0 -43 5 -51 20 -13 24 -60 28 -60 5 0 -9 11 -27 25 -40 19 -20
34 -25 75 -25 79 0 110 21 110 76 0 40 -25 62 -90 79 -62 16 -68 21 -54 43 16
25 50 26 73 3 12 -12 32 -21 46 -21 29 0 29 1 14 33 -22 49 -115 64 -163 26z"/>
<path d="M752 324 c-30 -21 -28 -44 3 -44 14 0 25 4 25 9 0 16 40 23 56 10 19
-16 0 -39 -33 -39 -65 0 -106 -56 -68 -94 12 -11 36 -15 90 -14 l75 1 0 73 c0
61 -4 78 -20 94 -25 25 -95 27 -128 4z"/>
<path d="M962 324 c-30 -21 -28 -44 3 -44 14 0 25 4 25 9 0 16 40 23 56 10 19
-16 0 -39 -33 -39 -65 0 -106 -56 -68 -94 12 -11 36 -15 90 -14 l75 1 0 73 c0
61 -4 78 -20 94 -25 25 -95 27 -128 4z"/>
</g>
</svg>
