<?xml version="1.0" standalone="no"?>
<!DOCTYPE svg PUBLIC "-//W3C//DTD SVG 20010904//EN"
 "http://www.w3.org/TR/2001/REC-SVG-20010904/DTD/svg10.dtd">
<svg version="1.0" xmlns="http://www.w3.org/2000/svg"
 width="184.000000pt" height="184.000000pt" viewBox="0 0 184.000000 184.000000"
 preserveAspectRatio="xMidYMid meet">
<metadata>
Created by potrace 1.13, written by Peter Selinger 2001-2015
</metadata>
<g transform="translate(0.000000,184.000000) scale(0.100000,-0.100000)"
fill="#000000" stroke="none">
<path d="M589 1731 c-141 -45 -254 -178 -267 -314 l-5 -48 -63 -29 c-85 -38
-156 -107 -197 -189 -30 -61 -32 -73 -32 -166 0 -88 3 -107 27 -158 54 -115
130 -184 240 -219 110 -33 170 -17 170 47 0 38 -18 53 -74 60 -100 14 -171 62
-213 144 -33 67 -40 128 -21 193 32 111 118 182 233 194 l59 6 -1 92 c0 75 4
98 22 132 26 49 92 111 141 131 54 22 152 19 206 -6 41 -20 107 -83 131 -125
9 -16 15 -17 50 -7 87 24 160 10 239 -46 34 -24 52 -48 78 -103 l33 -70 51 6
c188 22 343 -158 290 -338 -29 -102 -119 -184 -218 -202 -46 -8 -68 -29 -68
-65 0 -45 31 -65 87 -57 116 15 246 116 301 233 24 52 27 70 27 163 0 92 -4
112 -26 160 -58 122 -180 214 -303 227 -53 5 -59 9 -86 47 -42 60 -98 111
-155 140 -56 27 -155 47 -198 39 -22 -4 -36 2 -70 34 -113 104 -252 138 -388
94z"/>
<path d="M990 1077 c0 -68 -25 -110 -129 -213 -82 -82 -91 -94 -91 -128 0 -20
7 -50 15 -65 14 -29 94 -104 129 -123 18 -10 18 -9 -1 23 -12 19 -30 50 -42
69 -11 19 -21 52 -21 73 0 34 9 47 84 127 91 95 114 141 102 202 -4 18 -15 44
-26 58 l-20 25 0 -48z"/>
<path d="M1063 886 c-156 -58 -204 -148 -134 -250 33 -48 37 -66 20 -97 -10
-19 -9 -20 18 -6 67 35 84 89 45 145 -24 32 -28 72 -12 102 6 10 38 40 73 66
34 26 66 51 72 56 16 14 -18 8 -82 -16z"/>
<path d="M1134 565 c-19 -14 -19 -14 2 -15 28 0 74 -37 74 -58 0 -9 -28 -43
-61 -75 -55 -52 -58 -57 -33 -51 65 14 133 52 148 83 23 44 20 66 -15 100 -34
35 -82 41 -115 16z"/>
<path d="M728 559 c-71 -10 -119 -34 -112 -54 3 -8 26 -22 50 -31 37 -14 68
-16 192 -11 161 6 221 18 249 50 17 20 17 20 -2 13 -36 -14 -375 -20 -375 -7
0 6 20 16 45 23 28 8 40 15 32 20 -6 4 -14 7 -17 7 -3 -1 -31 -5 -62 -10z"/>
<path d="M719 436 c-43 -21 -36 -43 22 -60 108 -32 236 -30 316 7 22 10 22 11
7 29 -16 16 -29 17 -145 11 -107 -5 -132 -3 -152 10 -19 12 -28 13 -48 3z"/>
<path d="M730 325 c-7 -8 -10 -21 -7 -29 8 -22 100 -48 167 -47 58 0 180 27
180 40 0 3 -10 13 -22 21 -18 11 -51 14 -145 11 -85 -2 -123 0 -123 8 0 16
-36 13 -50 -4z"/>
<path d="M572 249 c-74 -48 -16 -75 185 -88 234 -16 473 21 473 74 0 21 -16
27 -29 11 -17 -20 -166 -39 -311 -40 -139 -1 -260 11 -260 24 0 5 21 16 48 24
l47 15 -60 0 c-45 1 -68 -5 -93 -20z"/>
<path d="M1228 195 c-66 -36 -158 -49 -355 -49 -106 0 -193 -1 -193 -3 0 -13
84 -35 167 -43 101 -11 250 -1 327 21 39 11 96 57 96 78 0 14 -9 13 -42 -4z"/>
</g>
</svg>
