<?xml version="1.0" standalone="no"?>
<!DOCTYPE svg PUBLIC "-//W3C//DTD SVG 20010904//EN"
 "http://www.w3.org/TR/2001/REC-SVG-20010904/DTD/svg10.dtd">
<?xml-stylesheet type="text/css" href="/assets/css/main.css" ?>
<svg version="1.0" xmlns="http://www.w3.org/2000/svg"
 width="184.000000pt" height="184.000000pt" viewBox="0 0 184.000000 184.000000"
 preserveAspectRatio="xMidYMid meet" class="logos">
<metadata>
Created by potrace 1.13, written by Peter Selinger 2001-2015
</metadata>
<g transform="translate(0.000000,184.000000) scale(0.100000,-0.100000)" stroke="none">
<path d="M589 1731 c-141 -45 -254 -178 -267 -314 l-5 -48 -63 -29 c-85 -38
-156 -107 -197 -189 -30 -61 -32 -73 -32 -166 0 -88 3 -107 27 -158 54 -115
130 -184 240 -219 110 -33 170 -17 170 47 0 38 -18 53 -74 60 -100 14 -171 62
-213 144 -33 67 -40 128 -21 193 32 111 118 182 233 194 l59 6 -1 92 c0 75 4
98 22 132 26 49 92 111 141 131 54 22 152 19 206 -6 41 -20 107 -83 131 -125
9 -16 15 -17 50 -7 87 24 160 10 239 -46 34 -24 52 -48 78 -103 l33 -70 51 6
c188 22 343 -158 290 -338 -29 -102 -119 -184 -218 -202 -46 -8 -68 -29 -68
-65 0 -45 31 -65 87 -57 116 15 246 116 301 233 24 52 27 70 27 163 0 92 -4
112 -26 160 -58 122 -180 214 -303 227 -53 5 -59 9 -86 47 -42 60 -98 111
-155 140 -56 27 -155 47 -198 39 -22 -4 -36 2 -70 34 -113 104 -252 138 -388
94z"/>
<path d="M500 990 l0 -130 95 0 c95 0 95 0 95 25 0 24 -2 25 -70 25 l-70 0 0
30 c0 29 1 29 63 32 54 3 62 5 62 23 0 18 -8 20 -62 23 -59 3 -63 4 -63 27 0
23 4 24 68 27 61 3 67 5 70 26 3 21 1 22 -92 22 l-96 0 0 -130z"/>
<path d="M730 990 l0 -130 95 0 c95 0 95 0 95 25 0 24 -2 25 -70 25 l-70 0 0
30 0 30 60 0 c57 0 60 1 60 25 0 24 -3 25 -60 25 -57 0 -60 1 -60 25 0 23 3
24 68 27 61 3 67 5 70 26 3 21 1 22 -92 22 l-96 0 0 -130z"/>
<path d="M1114 997 c-1 -61 -26 -100 -121 -193 l-86 -84 6 -47 c5 -43 12 -54
67 -106 34 -32 64 -56 67 -53 3 3 -9 28 -26 56 -58 93 -50 137 35 206 53 44
104 126 104 169 0 24 -32 95 -42 95 -2 0 -3 -19 -4 -43z"/>
<path d="M1192 830 c-70 -25 -117 -55 -142 -90 -26 -37 -26 -99 0 -133 29 -36
39 -69 29 -95 -8 -22 -8 -22 19 -8 60 31 72 80 34 134 -12 16 -22 40 -22 52 0
23 52 80 120 132 41 32 34 33 -38 8z"/>
<path d="M833 519 c-86 -20 -79 -60 15 -80 99 -20 334 3 362 36 9 10 -22 12
-160 7 -179 -5 -210 2 -127 31 l42 15 -45 0 c-25 0 -64 -4 -87 -9z"/>
<path d="M849 401 l-23 -18 31 -16 c53 -28 167 -41 236 -27 32 6 70 16 83 22
22 10 23 13 9 28 -13 14 -32 16 -144 12 -89 -3 -130 -1 -135 7 -10 16 -31 14
-57 -8z"/>
<path d="M880 312 c-21 -17 -21 -19 -6 -35 38 -38 172 -49 265 -21 51 15 52
16 35 35 -16 17 -26 19 -124 13 -90 -6 -108 -4 -122 10 -21 20 -21 20 -48 -2z"/>
<path d="M733 240 c-40 -24 -42 -47 -7 -60 43 -17 263 -32 354 -25 165 13 273
49 251 84 -8 12 -12 12 -25 -2 -24 -23 -109 -32 -311 -32 -202 0 -251 11 -174
38 l44 15 -50 1 c-33 1 -61 -6 -82 -19z"/>
<path d="M1301 179 c-80 -29 -209 -42 -351 -35 -110 5 -123 4 -106 -9 35 -27
125 -38 266 -32 74 3 152 11 173 18 40 13 87 51 87 69 0 13 -4 12 -69 -11z"/>
</g>
</svg>
