<?xml version="1.0" standalone="no"?>
<!DOCTYPE svg PUBLIC "-//W3C//DTD SVG 20010904//EN"
 "http://www.w3.org/TR/2001/REC-SVG-20010904/DTD/svg10.dtd">
<svg version="1.0" xmlns="http://www.w3.org/2000/svg"
 width="184.000000pt" height="184.000000pt" viewBox="0 0 184.000000 184.000000"
 preserveAspectRatio="xMidYMid meet">
<metadata>
Created by potrace 1.13, written by Peter Selinger 2001-2015
</metadata>
<g transform="translate(0.000000,184.000000) scale(0.100000,-0.100000)"
fill="#000000" stroke="none">
<path d="M630 1736 c-158 -35 -270 -152 -303 -315 l-13 -64 -55 -20 c-77 -29
-178 -131 -207 -210 -32 -84 -37 -151 -18 -226 21 -84 60 -153 112 -201 101
-93 267 -134 306 -76 23 34 -13 86 -60 86 -55 0 -125 32 -172 80 -111 110
-106 289 9 393 50 45 78 57 151 66 l55 6 2 80 c2 95 23 153 71 207 57 63 104
83 197 83 59 0 89 -5 115 -19 45 -23 98 -73 117 -109 14 -28 16 -28 66 -21
134 20 219 -11 288 -104 15 -20 32 -55 39 -77 l12 -41 69 4 c157 9 274 -91
286 -243 12 -147 -71 -263 -214 -300 -84 -22 -108 -64 -58 -103 21 -17 32 -18
72 -11 113 21 223 105 276 210 76 151 52 316 -64 443 -56 62 -132 102 -222
119 -63 11 -68 15 -100 61 -73 102 -174 157 -302 164 -76 4 -82 6 -122 43 -56
51 -128 86 -204 99 -35 5 -66 10 -69 9 -3 0 -30 -6 -60 -13z"/>
<path d="M540 1130 l0 -30 180 0 180 0 0 30 0 30 -180 0 -180 0 0 -30z"/>
<path d="M1020 1025 l0 -125 116 0 117 0 -49 53 c-27 29 -79 85 -116 125 l-68
72 0 -125z"/>
<path d="M540 1030 l0 -30 140 0 140 0 0 30 0 30 -140 0 -140 0 0 -30z"/>
<path d="M540 930 l0 -30 220 0 220 0 0 30 0 30 -220 0 -220 0 0 -30z"/>
<path d="M540 830 l0 -30 123 0 c121 1 122 1 157 30 l34 30 -157 0 -157 0 0
-30z"/>
<path d="M988 849 c-148 -23 -260 -156 -260 -309 0 -123 64 -224 174 -280 52
-26 72 -30 139 -30 69 0 85 4 143 34 l65 34 60 -64 c63 -66 100 -81 129 -52
28 28 13 62 -57 132 l-69 68 19 42 c13 28 19 64 19 117 0 65 -4 85 -30 137
-63 125 -193 193 -332 171z m150 -108 c80 -41 122 -111 122 -201 0 -130 -90
-220 -220 -220 -130 0 -220 90 -220 220 0 90 43 160 125 203 43 23 146 22 193
-2z"/>
<path d="M950 631 c0 -14 20 -27 80 -51 45 -18 79 -34 78 -35 -2 -2 -37 -17
-78 -33 -56 -22 -76 -35 -78 -50 -3 -19 5 -18 102 21 88 35 106 46 106 63 0
16 -12 26 -52 42 -29 11 -77 29 -105 41 -51 20 -53 20 -53 2z"/>
</g>
</svg>
