<?xml version="1.0" standalone="no"?>
<!DOCTYPE svg PUBLIC "-//W3C//DTD SVG 20010904//EN"
 "http://www.w3.org/TR/2001/REC-SVG-20010904/DTD/svg10.dtd">
<svg version="1.0" xmlns="http://www.w3.org/2000/svg"
 width="184.000000pt" height="184.000000pt" viewBox="0 0 184.000000 184.000000"
 preserveAspectRatio="xMidYMid meet">
<metadata>
Created by potrace 1.13, written by Peter Selinger 2001-2015
</metadata>
<g transform="translate(0.000000,184.000000) scale(0.100000,-0.100000)"
fill="#000000" stroke="none">
<path d="M589 1731 c-141 -45 -254 -178 -267 -314 l-5 -48 -63 -29 c-85 -38
-156 -107 -197 -189 -30 -61 -32 -73 -32 -166 0 -88 3 -107 27 -158 54 -115
130 -184 240 -219 110 -33 170 -17 170 47 0 38 -18 53 -74 60 -100 14 -171 62
-213 144 -33 67 -40 128 -21 193 32 111 118 182 233 194 l59 6 -1 92 c0 75 4
98 22 132 26 49 92 111 141 131 54 22 152 19 206 -6 41 -20 107 -83 131 -125
9 -16 15 -17 50 -7 87 24 160 10 239 -46 34 -24 52 -48 78 -103 l33 -70 51 6
c188 22 343 -158 290 -338 -29 -102 -119 -184 -218 -202 -46 -8 -68 -29 -68
-65 0 -45 31 -65 87 -57 116 15 246 116 301 233 24 52 27 70 27 163 0 92 -4
112 -26 160 -58 122 -180 214 -303 227 -53 5 -59 9 -86 47 -42 60 -98 111
-155 140 -56 27 -155 47 -198 39 -22 -4 -36 2 -70 34 -113 104 -252 138 -388
94z"/>
<path d="M1099 903 c-123 -189 -138 -208 -161 -205 -48 6 -76 -49 -42 -82 32
-32 84 -8 84 38 0 29 46 74 60 60 19 -19 22 -79 7 -116 -40 -94 -174 -103
-227 -15 -56 90 15 203 122 195 35 -2 42 1 50 21 11 30 9 31 -40 38 -137 18
-250 -128 -197 -255 66 -157 275 -161 346 -7 23 50 24 93 3 145 -15 38 -15 42
1 60 23 26 39 13 59 -47 20 -60 20 -107 -1 -168 -31 -92 -134 -165 -233 -165
-132 0 -250 118 -250 250 0 102 73 203 169 235 49 16 85 17 163 3 13 -2 25 12
42 49 l25 53 -51 15 c-143 42 -314 -18 -399 -141 -143 -209 -47 -491 193 -566
109 -33 226 -15 322 51 90 62 156 189 156 301 0 58 -29 157 -59 198 l-21 30
71 58 70 57 -58 59 c-31 32 -60 58 -63 58 -4 0 -67 -93 -141 -207z"/>
</g>
</svg>
