<?xml version="1.0" standalone="no"?>
<!DOCTYPE svg PUBLIC "-//W3C//DTD SVG 20010904//EN"
 "http://www.w3.org/TR/2001/REC-SVG-20010904/DTD/svg10.dtd">
<svg version="1.0" xmlns="http://www.w3.org/2000/svg"
 width="184.000000pt" height="184.000000pt" viewBox="0 0 184.000000 184.000000"
 preserveAspectRatio="xMidYMid meet">
<metadata>
Created by potrace 1.13, written by Peter Selinger 2001-2015
</metadata>
<g transform="translate(0.000000,184.000000) scale(0.100000,-0.100000)"
fill="#000000" stroke="none">
<path d="M589 1731 c-141 -45 -254 -178 -267 -314 l-5 -48 -63 -29 c-85 -38
-156 -107 -197 -189 -30 -61 -32 -73 -32 -166 0 -88 3 -107 27 -158 54 -115
130 -184 240 -219 110 -33 170 -17 170 47 0 38 -18 53 -74 60 -100 14 -171 62
-213 144 -33 67 -40 128 -21 193 32 111 118 182 233 194 l59 6 -1 92 c0 75 4
98 22 132 26 49 92 111 141 131 54 22 152 19 206 -6 41 -20 107 -83 131 -125
9 -16 15 -17 50 -7 87 24 160 10 239 -46 34 -24 52 -48 78 -103 l33 -70 51 6
c188 22 343 -158 290 -338 -29 -102 -119 -184 -218 -202 -46 -8 -68 -29 -68
-65 0 -45 31 -65 87 -57 116 15 246 116 301 233 24 52 27 70 27 163 0 92 -4
112 -26 160 -58 122 -180 214 -303 227 -53 5 -59 9 -86 47 -42 60 -98 111
-155 140 -56 27 -155 47 -198 39 -22 -4 -36 2 -70 34 -113 104 -252 138 -388
94z"/>
<path d="M576 784 c-9 -8 -16 -25 -16 -37 0 -14 3 -18 8 -10 6 9 42 -7 130
-57 67 -39 124 -70 126 -70 3 0 56 30 118 66 62 37 119 67 126 67 17 0 15 22
-4 41 -23 24 -465 24 -488 0z"/>
<path d="M560 609 l0 -111 23 14 c12 8 52 32 89 52 37 21 70 41 73 46 5 7
-162 110 -179 110 -3 0 -6 -50 -6 -111z"/>
<path d="M678 536 c-147 -83 -144 -96 23 -96 l99 0 0 59 c0 33 3 66 6 74 12
32 -26 21 -128 -37z"/>
<path d="M856 544 c-9 -8 -16 -18 -16 -22 0 -9 234 -142 249 -142 21 0 230
125 231 137 0 6 -7 19 -16 27 -23 24 -425 24 -448 0z"/>
<path d="M840 381 c0 -56 2 -101 5 -101 12 0 165 92 165 99 0 6 -131 86 -162
99 -5 2 -8 -42 -8 -97z"/>
<path d="M1233 426 c-40 -22 -73 -43 -73 -46 0 -5 146 -90 155 -90 3 0 5 41 5
90 0 50 -3 90 -7 89 -5 -1 -41 -20 -80 -43z"/>
<path d="M943 302 c-57 -31 -103 -60 -103 -64 0 -4 7 -14 16 -22 24 -24 425
-24 449 0 9 9 14 21 12 28 -2 6 -46 35 -97 65 -78 45 -97 52 -112 42 -13 -8
-24 -8 -38 -1 -10 5 -20 10 -22 10 -2 0 -49 -26 -105 -58z"/>
</g>
</svg>
