<?xml version="1.0" standalone="no"?>
<!DOCTYPE svg PUBLIC "-//W3C//DTD SVG 20010904//EN"
 "http://www.w3.org/TR/2001/REC-SVG-20010904/DTD/svg10.dtd">
<svg version="1.0" xmlns="http://www.w3.org/2000/svg"
 width="184.000000pt" height="184.000000pt" viewBox="0 0 184.000000 184.000000"
 preserveAspectRatio="xMidYMid meet">
<metadata>
Created by potrace 1.13, written by Peter Selinger 2001-2015
</metadata>
<g transform="translate(0.000000,184.000000) scale(0.100000,-0.100000)"
fill="#000000" stroke="none">
<path d="M589 1731 c-141 -45 -254 -178 -267 -314 l-5 -48 -63 -29 c-85 -38
-156 -107 -197 -189 -30 -61 -32 -73 -32 -166 0 -88 3 -107 27 -158 54 -115
130 -184 240 -219 110 -33 170 -17 170 47 0 38 -18 53 -74 60 -100 14 -171 62
-213 144 -33 67 -40 128 -21 193 32 111 118 182 233 194 l59 6 -1 92 c0 75 4
98 22 132 26 49 92 111 141 131 54 22 152 19 206 -6 41 -20 107 -83 131 -125
9 -16 15 -17 50 -7 87 24 160 10 239 -46 34 -24 52 -48 78 -103 l33 -70 51 6
c188 22 343 -158 290 -338 -29 -102 -119 -184 -218 -202 -46 -8 -68 -29 -68
-65 0 -45 31 -65 87 -57 116 15 246 116 301 233 24 52 27 70 27 163 0 92 -4
112 -26 160 -58 122 -180 214 -303 227 -53 5 -59 9 -86 47 -42 60 -98 111
-155 140 -56 27 -155 47 -198 39 -22 -4 -36 2 -70 34 -113 104 -252 138 -388
94z"/>
<path d="M840 851 c-34 -11 -90 -40 -118 -62 -21 -16 -21 -18 -5 -22 47 -13
112 -17 118 -7 3 5 19 10 34 10 16 0 55 16 87 35 32 19 63 35 68 36 6 0 2 4
-9 9 -25 11 -141 11 -175 1z"/>
<path d="M1050 801 c-51 -20 -130 -63 -130 -72 0 -3 18 -12 40 -19 74 -24 133
-83 157 -155 l10 -30 13 25 c20 37 40 120 40 166 0 35 -5 45 -32 66 -50 37
-50 37 -98 19z"/>
<path d="M646 706 c-9 -15 -24 -46 -32 -68 -21 -61 -17 -227 6 -213 4 2 30 -5
59 -15 69 -27 70 -26 60 18 -20 87 -6 154 47 232 20 29 34 54 31 56 -2 2 -37
7 -78 10 -73 6 -75 6 -93 -20z"/>
<path d="M873 680 c-30 -12 -81 -84 -94 -134 -15 -57 -4 -127 24 -149 18 -15
36 -17 94 -14 96 5 166 39 171 83 2 16 8 34 13 41 13 15 -19 79 -58 114 -27
26 -104 70 -120 68 -4 0 -18 -4 -30 -9z"/>
<path d="M1217 683 c-4 -3 -7 -17 -7 -30 0 -14 -10 -57 -23 -96 -36 -109 -46
-147 -52 -202 -4 -27 -9 -61 -12 -75 -5 -23 -2 -22 37 15 23 22 54 63 68 90
24 44 27 61 26 145 0 91 -20 171 -37 153z"/>
<path d="M1086 401 c-17 -27 -96 -52 -181 -58 -56 -4 -85 -10 -85 -18 0 -6 17
-38 38 -69 l37 -58 61 5 c94 7 116 22 131 87 14 61 14 134 -1 111z"/>
</g>
</svg>
