<?xml version="1.0" standalone="no"?>
<!DOCTYPE svg PUBLIC "-//W3C//DTD SVG 20010904//EN"
 "http://www.w3.org/TR/2001/REC-SVG-20010904/DTD/svg10.dtd">
<?xml-stylesheet type="text/css" href="/assets/css/main.css" ?>
<svg version="1.0" xmlns="http://www.w3.org/2000/svg"
 width="184.000000pt" height="184.000000pt" viewBox="0 0 184.000000 184.000000"
 preserveAspectRatio="xMidYMid meet" class="logos">
<metadata>
Created by potrace 1.13, written by Peter Selinger 2001-2015
</metadata>
<g transform="translate(0.000000,184.000000) scale(0.100000,-0.100000)" stroke="none">
<path d="M589 1731 c-141 -45 -254 -178 -267 -314 l-5 -48 -63 -29 c-85 -38
-156 -107 -197 -189 -30 -61 -32 -73 -32 -166 0 -88 3 -107 27 -158 54 -115
130 -184 240 -219 110 -33 170 -17 170 47 0 38 -18 53 -74 60 -100 14 -171 62
-213 144 -33 67 -40 128 -21 193 32 111 118 182 233 194 l59 6 -1 92 c0 75 4
98 22 132 26 49 92 111 141 131 54 22 152 19 206 -6 41 -20 107 -83 131 -125
9 -16 15 -17 50 -7 87 24 160 10 239 -46 34 -24 52 -48 78 -103 l33 -70 51 6
c188 22 343 -158 290 -338 -29 -102 -119 -184 -218 -202 -46 -8 -68 -29 -68
-65 0 -45 31 -65 87 -57 116 15 246 116 301 233 24 52 27 70 27 163 0 92 -4
112 -26 160 -58 122 -180 214 -303 227 -53 5 -59 9 -86 47 -42 60 -98 111
-155 140 -56 27 -155 47 -198 39 -22 -4 -36 2 -70 34 -113 104 -252 138 -388
94z"/>
<path d="M1077 1134 c-4 -4 -7 -20 -7 -35 0 -32 -23 -44 -51 -26 -17 10 -23 9
-40 -12 -20 -24 -20 -24 2 -47 25 -26 19 -54 -10 -54 -26 0 -34 -15 -27 -46 5
-18 13 -24 35 -24 34 0 46 -22 28 -51 -10 -17 -9 -23 12 -40 24 -20 24 -20 46
1 26 24 52 18 57 -13 2 -17 10 -22 33 -22 26 0 30 4 33 32 4 36 24 48 53 30
17 -10 23 -9 40 12 20 24 20 24 -2 47 -25 27 -20 51 13 56 18 2 23 9 23 33 0
26 -4 30 -32 33 -36 4 -48 24 -30 53 10 17 9 23 -12 40 -24 20 -24 20 -46 -1
-26 -24 -52 -18 -57 13 -3 22 -45 36 -61 21z m110 -126 c51 -48 15 -138 -56
-138 -47 0 -81 32 -81 79 0 72 84 109 137 59z"/>
<path d="M822 788 c-7 -7 -12 -29 -12 -49 0 -31 -4 -38 -26 -43 -19 -5 -33 -1
-48 13 -29 27 -57 26 -84 -2 -27 -29 -28 -54 -1 -83 14 -15 18 -29 13 -48 -5
-22 -12 -26 -43 -26 -46 0 -61 -14 -61 -60 0 -46 15 -60 61 -60 31 0 38 -4 43
-26 5 -19 1 -33 -13 -48 -27 -29 -26 -57 2 -84 29 -27 54 -28 83 -1 15 14 29
18 48 13 22 -5 26 -12 26 -43 0 -46 14 -61 60 -61 46 0 60 15 60 61 0 31 4 38
26 43 19 5 33 1 48 -13 29 -27 57 -26 84 2 27 29 28 54 1 83 -14 15 -18 29
-13 48 5 22 12 26 43 26 46 0 61 14 61 60 0 46 -15 60 -61 60 -31 0 -38 4 -43
26 -5 19 -1 33 13 48 27 29 26 57 -2 84 -29 27 -54 28 -83 1 -15 -14 -29 -18
-48 -13 -22 5 -26 12 -26 43 0 20 -5 42 -12 49 -16 16 -80 16 -96 0z m120
-185 c47 -23 72 -91 56 -149 -35 -129 -221 -130 -256 0 -20 70 15 137 83 161
42 14 72 11 117 -12z"/>
</g>
</svg>
