<?xml version="1.0" standalone="no"?>
<!DOCTYPE svg PUBLIC "-//W3C//DTD SVG 20010904//EN"
 "http://www.w3.org/TR/2001/REC-SVG-20010904/DTD/svg10.dtd">
<?xml-stylesheet type="text/css" href="/assets/css/main.css" ?>
<svg version="1.0" xmlns="http://www.w3.org/2000/svg"
 width="184.000000pt" height="184.000000pt" viewBox="0 0 184.000000 184.000000"
 preserveAspectRatio="xMidYMid meet" class="logos">
<metadata>
Created by potrace 1.13, written by Peter Selinger 2001-2015
</metadata>
<g transform="translate(0.000000,184.000000) scale(0.100000,-0.100000)" stroke="none">
<path d="M589 1731 c-141 -45 -254 -178 -267 -314 l-5 -48 -63 -29 c-85 -38
-156 -107 -197 -189 -30 -61 -32 -73 -32 -166 0 -88 3 -107 27 -158 54 -115
130 -184 240 -219 110 -33 170 -17 170 47 0 38 -18 53 -74 60 -100 14 -171 62
-213 144 -33 67 -40 128 -21 193 32 111 118 182 233 194 l59 6 -1 92 c0 75 4
98 22 132 26 49 92 111 141 131 54 22 152 19 206 -6 41 -20 107 -83 131 -125
9 -16 15 -17 50 -7 87 24 160 10 239 -46 34 -24 52 -48 78 -103 l33 -70 51 6
c188 22 343 -158 290 -338 -29 -102 -119 -184 -218 -202 -46 -8 -68 -29 -68
-65 0 -45 31 -65 87 -57 116 15 246 116 301 233 24 52 27 70 27 163 0 92 -4
112 -26 160 -58 122 -180 214 -303 227 -53 5 -59 9 -86 47 -42 60 -98 111
-155 140 -56 27 -155 47 -198 39 -22 -4 -36 2 -70 34 -113 104 -252 138 -388
94z"/>
<path d="M822 1017 c-45 -45 -82 -89 -82 -97 0 -20 161 -180 180 -180 20 0
180 161 180 180 0 20 -161 180 -180 180 -9 0 -52 -37 -98 -83z"/>
<path d="M628 777 c28 -29 27 -33 -3 -68 -31 -38 -41 -90 -25 -130 l13 -31 13
38 c7 21 26 51 43 68 l30 30 26 -24 c14 -13 27 -21 29 -19 3 2 6 38 8 79 l3
75 -80 3 -79 3 22 -24z"/>
<path d="M1063 784 c33 -18 85 -116 64 -123 -66 -21 -66 -19 7 -62 37 -21 71
-39 74 -39 9 0 76 129 70 135 -2 2 -17 1 -34 -4 -26 -7 -31 -4 -49 28 -27 47
-79 81 -124 81 l-36 -1 28 -15z"/>
<path d="M572 500 c-94 -57 -94 -183 0 -240 64 -39 146 -16 188 52 71 117 -71
259 -188 188z"/>
<path d="M1072 508 c-17 -17 -17 -239 0 -256 17 -17 239 -17 256 0 17 17 17
239 0 256 -17 17 -239 17 -256 0z"/>
</g>
</svg>
