<?xml version="1.0" standalone="no"?>
<!DOCTYPE svg PUBLIC "-//W3C//DTD SVG 20010904//EN"
 "http://www.w3.org/TR/2001/REC-SVG-20010904/DTD/svg10.dtd">
<?xml-stylesheet type="text/css" href="/assets/css/main.css" ?>
<svg version="1.0" xmlns="http://www.w3.org/2000/svg"
 width="184.000000pt" height="184.000000pt" viewBox="0 0 184.000000 184.000000"
 preserveAspectRatio="xMidYMid meet" class="logos">
<metadata>
Created by potrace 1.13, written by Peter Selinger 2001-2015
</metadata>
<g transform="translate(0.000000,184.000000) scale(0.100000,-0.100000)" stroke="none">
<path d="M589 1731 c-141 -45 -254 -178 -267 -314 l-5 -48 -63 -29 c-85 -38
-156 -107 -197 -189 -30 -61 -32 -73 -32 -166 0 -88 3 -107 27 -158 54 -115
130 -184 240 -219 110 -33 170 -17 170 47 0 38 -18 53 -74 60 -100 14 -171 62
-213 144 -33 67 -40 128 -21 193 32 111 118 182 233 194 l59 6 -1 92 c0 75 4
98 22 132 26 49 92 111 141 131 54 22 152 19 206 -6 41 -20 107 -83 131 -125
9 -16 15 -17 50 -7 87 24 160 10 239 -46 34 -24 52 -48 78 -103 l33 -70 51 6
c188 22 343 -158 290 -338 -29 -102 -119 -184 -218 -202 -46 -8 -68 -29 -68
-65 0 -45 31 -65 87 -57 116 15 246 116 301 233 24 52 27 70 27 163 0 92 -4
112 -26 160 -58 122 -180 214 -303 227 -53 5 -59 9 -86 47 -42 60 -98 111
-155 140 -56 27 -155 47 -198 39 -22 -4 -36 2 -70 34 -113 104 -252 138 -388
94z"/>
<path d="M980 1001 l0 -41 -98 0 c-118 0 -182 -17 -245 -65 -52 -40 -102 -131
-112 -206 -8 -52 14 -153 41 -194 l17 -25 46 26 c25 15 47 28 49 29 1 1 -7 24
-19 50 -41 93 -2 206 84 246 32 14 65 19 140 19 l97 0 0 -50 0 -50 108 66 c59
37 115 72 125 79 17 12 9 18 -75 65 -51 29 -108 61 -125 72 l-33 20 0 -41z"/>
<path d="M1235 819 c-16 -11 -36 -24 -44 -28 -12 -7 -10 -16 7 -53 37 -76 27
-146 -31 -207 -51 -53 -99 -71 -199 -71 l-87 0 -3 49 -3 48 -123 -70 c-91 -51
-121 -72 -112 -81 6 -6 61 -41 123 -77 l112 -67 3 38 3 38 107 4 c125 5 175
23 247 89 73 67 100 127 100 224 0 66 -4 89 -25 130 -14 27 -29 50 -35 51 -5
1 -23 -6 -40 -17z"/>
</g>
</svg>
