<?xml version="1.0" standalone="no"?>
<!DOCTYPE svg PUBLIC "-//W3C//DTD SVG 20010904//EN"
 "http://www.w3.org/TR/2001/REC-SVG-20010904/DTD/svg10.dtd">
<?xml-stylesheet type="text/css" href="/assets/css/main.css" ?>
<svg version="1.0" xmlns="http://www.w3.org/2000/svg"
 width="184.000000pt" height="184.000000pt" viewBox="0 0 184.000000 184.000000"
 preserveAspectRatio="xMidYMid meet" class="logos">
<metadata>
Created by potrace 1.13, written by Peter Selinger 2001-2015
</metadata>
<g transform="translate(0.000000,184.000000) scale(0.100000,-0.100000)" stroke="none">
<path d="M589 1731 c-141 -45 -254 -178 -267 -314 l-5 -48 -63 -29 c-85 -38
-156 -107 -197 -189 -30 -61 -32 -73 -32 -166 0 -88 3 -107 27 -158 54 -115
130 -184 240 -219 110 -33 170 -17 170 47 0 38 -18 53 -74 60 -100 14 -171 62
-213 144 -33 67 -40 128 -21 193 32 111 118 182 233 194 l59 6 -1 92 c0 75 4
98 22 132 26 49 92 111 141 131 54 22 152 19 206 -6 41 -20 107 -83 131 -125
9 -16 15 -17 50 -7 87 24 160 10 239 -46 34 -24 52 -48 78 -103 l33 -70 51 6
c188 22 343 -158 290 -338 -29 -102 -119 -184 -218 -202 -46 -8 -68 -29 -68
-65 0 -45 31 -65 87 -57 116 15 246 116 301 233 24 52 27 70 27 163 0 92 -4
112 -26 160 -58 122 -180 214 -303 227 -53 5 -59 9 -86 47 -42 60 -98 111
-155 140 -56 27 -155 47 -198 39 -22 -4 -36 2 -70 34 -113 104 -252 138 -388
94z"/>
<path d="M591 1026 c-8 -9 -11 -91 -9 -277 3 -242 4 -264 21 -267 16 -3 17 12
17 205 0 149 3 212 12 221 9 9 83 12 270 12 142 0 258 4 258 8 0 26 -30 32
-152 32 -128 0 -128 0 -128 23 0 48 -26 57 -157 57 -90 0 -123 -3 -132 -14z"/>
<path d="M672 868 c-8 -8 -12 -67 -12 -200 l0 -188 180 0 180 0 0 24 c0 31 25
56 56 56 21 0 23 3 14 19 -40 76 32 181 125 181 23 0 25 3 25 48 0 26 -5 53
-12 60 -17 17 -539 17 -556 0z"/>
<path d="M1149 691 c-20 -20 -29 -39 -29 -61 0 -22 9 -41 29 -61 40 -39 82
-39 122 0 20 20 29 39 29 61 0 22 -9 41 -29 61 -40 39 -82 39 -122 0z"/>
<path d="M1064 507 c-3 -8 -3 -56 -2 -108 l3 -94 145 0 145 0 0 105 0 105 -36
3 c-35 3 -39 0 -71 -53 l-34 -56 -38 56 c-34 49 -42 55 -73 55 -19 0 -36 -6
-39 -13z"/>
</g>
</svg>
