<?xml version="1.0" standalone="no"?>
<!DOCTYPE svg PUBLIC "-//W3C//DTD SVG 20010904//EN"
 "http://www.w3.org/TR/2001/REC-SVG-20010904/DTD/svg10.dtd">
<?xml-stylesheet type="text/css" href="/assets/css/main.css" ?>
<svg version="1.0" xmlns="http://www.w3.org/2000/svg"
 width="184.000000pt" height="184.000000pt" viewBox="0 0 184.000000 184.000000"
 preserveAspectRatio="xMidYMid meet" class="logos">
<metadata>
Created by potrace 1.13, written by Peter Selinger 2001-2015
</metadata>
<g transform="translate(0.000000,184.000000) scale(0.100000,-0.100000)" stroke="none">
<path d="M589 1731 c-141 -45 -254 -178 -267 -314 l-5 -48 -63 -29 c-85 -38
-156 -107 -197 -189 -30 -61 -32 -73 -32 -166 0 -88 3 -107 27 -158 54 -115
130 -184 240 -219 110 -33 170 -17 170 47 0 38 -18 53 -74 60 -100 14 -171 62
-213 144 -33 67 -40 128 -21 193 32 111 118 182 233 194 l59 6 -1 92 c0 75 4
98 22 132 26 49 92 111 141 131 54 22 152 19 206 -6 41 -20 107 -83 131 -125
9 -16 15 -17 50 -7 87 24 160 10 239 -46 34 -24 52 -48 78 -103 l33 -70 51 6
c188 22 343 -158 290 -338 -29 -102 -119 -184 -218 -202 -46 -8 -68 -29 -68
-65 0 -45 31 -65 87 -57 116 15 246 116 301 233 24 52 27 70 27 163 0 92 -4
112 -26 160 -58 122 -180 214 -303 227 -53 5 -59 9 -86 47 -42 60 -98 111
-155 140 -56 27 -155 47 -198 39 -22 -4 -36 2 -70 34 -113 104 -252 138 -388
94z"/>
<path d="M570 1041 c-6 -12 -10 -135 -10 -330 0 -298 1 -312 20 -331 18 -18
33 -20 183 -20 149 0 165 2 181 19 17 19 17 20 -11 23 -27 3 -28 5 -31 63 -1
33 -7 69 -13 81 -6 12 -9 32 -7 45 2 19 10 25 39 29 25 3 45 15 64 38 16 19
34 31 41 28 12 -4 14 25 14 165 0 98 -4 178 -10 190 -10 18 -23 19 -230 19
-207 0 -220 -1 -230 -19z m385 -141 l0 -95 -157 -3 -158 -3 0 94 c0 52 3 97 7
101 4 3 75 5 157 4 l151 -3 0 -95z"/>
<path d="M1103 650 c-7 -39 -27 -48 -54 -24 -22 19 -43 13 -63 -19 -8 -12 -5
-21 8 -36 24 -26 15 -47 -23 -54 -27 -6 -31 -11 -31 -37 0 -26 4 -31 31 -37
38 -7 47 -28 24 -53 -32 -35 20 -87 56 -54 25 22 45 12 52 -26 6 -28 10 -31
39 -28 28 2 34 7 36 31 4 35 23 43 54 23 22 -14 26 -14 46 0 26 18 28 31 6 55
-22 25 -12 45 26 52 28 6 31 10 28 39 -2 28 -7 34 -31 36 -36 4 -45 27 -21 53
19 22 13 43 -19 63 -12 8 -21 5 -36 -8 -26 -24 -49 -15 -53 21 -2 24 -8 29
-36 31 -29 3 -33 0 -39 -28z m92 -115 c50 -49 15 -135 -55 -135 -41 0 -80 39
-80 80 0 41 39 80 80 80 19 0 40 -9 55 -25z"/>
</g>
</svg>
