<?xml version="1.0" standalone="no"?>
<!DOCTYPE svg PUBLIC "-//W3C//DTD SVG 20010904//EN"
 "http://www.w3.org/TR/2001/REC-SVG-20010904/DTD/svg10.dtd">
<?xml-stylesheet type="text/css" href="/assets/css/main.css" ?>
<svg version="1.0" xmlns="http://www.w3.org/2000/svg"
 width="184.000000pt" height="184.000000pt" viewBox="0 0 184.000000 184.000000"
 preserveAspectRatio="xMidYMid meet" class="logos">
<metadata>
Created by potrace 1.13, written by Peter Selinger 2001-2015
</metadata>
<g transform="translate(0.000000,184.000000) scale(0.100000,-0.100000)" stroke="none">
<path d="M589 1731 c-141 -45 -254 -178 -267 -314 l-5 -48 -63 -29 c-85 -38
-156 -107 -197 -189 -30 -61 -32 -73 -32 -166 0 -88 3 -107 27 -158 54 -115
130 -184 240 -219 110 -33 170 -17 170 47 0 38 -18 53 -74 60 -100 14 -171 62
-213 144 -33 67 -40 128 -21 193 32 111 118 182 233 194 l59 6 -1 92 c0 75 4
98 22 132 26 49 92 111 141 131 54 22 152 19 206 -6 41 -20 107 -83 131 -125
9 -16 15 -17 50 -7 87 24 160 10 239 -46 34 -24 52 -48 78 -103 l33 -70 51 6
c188 22 343 -158 290 -338 -29 -102 -119 -184 -218 -202 -46 -8 -68 -29 -68
-65 0 -45 31 -65 87 -57 116 15 246 116 301 233 24 52 27 70 27 163 0 92 -4
112 -26 160 -58 122 -180 214 -303 227 -53 5 -59 9 -86 47 -42 60 -98 111
-155 140 -56 27 -155 47 -198 39 -22 -4 -36 2 -70 34 -113 104 -252 138 -388
94z"/>
<path d="M657 960 c-3 -12 -14 -20 -25 -20 -28 0 -77 -43 -92 -80 -17 -40 -8
-111 18 -147 11 -16 39 -38 61 -48 l41 -18 0 -76 -1 -76 -24 28 c-14 15 -25
35 -25 43 0 11 -9 13 -42 8 -24 -4 -45 -8 -47 -10 -2 -2 1 -22 8 -43 13 -45
60 -89 102 -98 25 -5 29 -10 29 -39 0 -30 3 -34 25 -34 21 0 25 5 25 30 0 25
6 32 35 44 l35 15 0 74 c0 80 7 93 52 99 l27 3 -17 34 c-12 26 -30 41 -74 60
l-58 26 0 62 c0 66 10 78 34 40 13 -19 22 -22 56 -19 45 5 49 16 25 62 -16 30
-61 60 -90 60 -9 0 -19 9 -22 20 -3 13 -14 20 -28 20 -14 0 -25 -7 -28 -20z"/>
<path d="M1062 778 c-7 -7 -12 -25 -12 -40 0 -41 -44 -57 -75 -28 -28 26 -46
25 -73 -3 -27 -29 -28 -45 -2 -72 29 -31 13 -75 -28 -75 -35 0 -52 -16 -52
-52 0 -29 23 -48 60 -48 12 0 25 -10 32 -25 10 -21 8 -29 -10 -48 -28 -30 -28
-48 1 -75 29 -27 45 -28 73 -1 15 14 29 18 48 13 21 -5 26 -12 26 -38 0 -39
15 -56 52 -56 30 0 48 23 48 63 0 35 44 46 74 18 29 -27 47 -26 74 2 27 29 28
45 1 73 -28 30 -17 74 18 74 40 0 63 18 63 48 0 37 -17 52 -56 52 -26 0 -33 5
-38 26 -5 19 -1 33 13 48 27 29 26 47 -2 74 -29 27 -45 28 -73 1 -30 -28 -74
-17 -74 18 0 40 -18 63 -48 63 -16 0 -33 -5 -40 -12z m106 -174 c32 -21 53
-75 46 -114 -8 -39 -55 -86 -93 -95 -66 -14 -136 45 -136 115 0 94 102 147
183 94z"/>
</g>
</svg>
