<?xml version="1.0" standalone="no"?>
<!DOCTYPE svg PUBLIC "-//W3C//DTD SVG 20010904//EN"
 "http://www.w3.org/TR/2001/REC-SVG-20010904/DTD/svg10.dtd">
<?xml-stylesheet type="text/css" href="/assets/css/main.css" ?>
<svg version="1.0" xmlns="http://www.w3.org/2000/svg"
 width="184.000000pt" height="184.000000pt" viewBox="0 0 184.000000 184.000000"
 preserveAspectRatio="xMidYMid meet" class="logos">
<metadata>
Created by potrace 1.13, written by Peter Selinger 2001-2015
</metadata>
<g transform="translate(0.000000,184.000000) scale(0.100000,-0.100000)" stroke="none">
<path d="M589 1731 c-141 -45 -254 -178 -267 -314 l-5 -48 -63 -29 c-85 -38
-156 -107 -197 -189 -30 -61 -32 -73 -32 -166 0 -88 3 -107 27 -158 54 -115
130 -184 240 -219 110 -33 170 -17 170 47 0 38 -18 53 -74 60 -100 14 -171 62
-213 144 -33 67 -40 128 -21 193 32 111 118 182 233 194 l59 6 -1 92 c0 75 4
98 22 132 26 49 92 111 141 131 54 22 152 19 206 -6 41 -20 107 -83 131 -125
9 -16 15 -17 50 -7 87 24 160 10 239 -46 34 -24 52 -48 78 -103 l33 -70 51 6
c188 22 343 -158 290 -338 -29 -102 -119 -184 -218 -202 -46 -8 -68 -29 -68
-65 0 -45 31 -65 87 -57 116 15 246 116 301 233 24 52 27 70 27 163 0 92 -4
112 -26 160 -58 122 -180 214 -303 227 -53 5 -59 9 -86 47 -42 60 -98 111
-155 140 -56 27 -155 47 -198 39 -22 -4 -36 2 -70 34 -113 104 -252 138 -388
94z"/>
<path d="M918 1030 c23 -17 42 -34 42 -37 0 -3 -9 -18 -20 -33 l-20 -28 46
-22 c28 -14 56 -38 72 -63 24 -36 27 -50 26 -122 l-1 -82 39 10 c27 7 38 15
38 28 0 15 7 19 31 19 l32 0 -5 64 c-6 74 -53 171 -101 212 -46 39 -117 71
-172 79 l-50 7 43 -32z"/>
<path d="M730 1019 c-72 -40 -92 -59 -130 -131 -23 -42 -34 -78 -37 -121 l-5
-62 26 30 c14 17 25 34 26 38 0 4 17 -4 38 -18 l37 -25 7 41 c13 76 68 136
140 154 22 6 58 42 58 58 0 6 -88 67 -97 67 -4 0 -33 -14 -63 -31z"/>
<path d="M819 801 c-20 -20 -29 -39 -29 -61 0 -43 47 -90 90 -90 43 0 90 47
90 90 0 22 -9 41 -29 61 -40 39 -82 39 -122 0z"/>
<path d="M599 669 c-21 -30 -21 -31 -3 -72 40 -90 142 -161 248 -173 l54 -7 7
34 c4 19 16 50 26 70 l18 36 -54 -5 c-62 -5 -135 24 -162 64 -15 24 -90 84
-104 84 -4 0 -17 -14 -30 -31z"/>
<path d="M1180 540 l0 -120 120 0 c134 0 130 -3 108 74 -16 55 -99 138 -154
154 -77 22 -74 26 -74 -108z m112 45 c38 -26 78 -81 78 -109 0 -13 -12 -16
-75 -16 l-75 0 0 75 c0 86 9 93 72 50z"/>
<path d="M1059 592 c-150 -78 -158 -288 -15 -376 103 -64 237 -35 299 65 15
25 30 62 34 82 l6 37 -112 0 -111 0 0 110 c0 109 0 110 -24 110 -13 0 -48 -13
-77 -28z"/>
</g>
</svg>
