<?xml version="1.0" standalone="no"?>
<!DOCTYPE svg PUBLIC "-//W3C//DTD SVG 20010904//EN"
 "http://www.w3.org/TR/2001/REC-SVG-20010904/DTD/svg10.dtd">
<?xml-stylesheet type="text/css" href="/assets/css/main.css" ?>
<svg version="1.0" xmlns="http://www.w3.org/2000/svg"
 width="184.000000pt" height="184.000000pt" viewBox="0 0 184.000000 184.000000"
 preserveAspectRatio="xMidYMid meet" class="logos">
<metadata>
Created by potrace 1.13, written by Peter Selinger 2001-2015
</metadata>
<g transform="translate(0.000000,184.000000) scale(0.100000,-0.100000)" stroke="none">
<path d="M589 1731 c-141 -45 -254 -178 -267 -314 l-5 -48 -63 -29 c-85 -38
-156 -107 -197 -189 -30 -61 -32 -73 -32 -166 0 -88 3 -107 27 -158 54 -115
130 -184 240 -219 110 -33 170 -17 170 47 0 38 -18 53 -74 60 -100 14 -171 62
-213 144 -33 67 -40 128 -21 193 32 111 118 182 233 194 l59 6 -1 92 c0 75 4
98 22 132 26 49 92 111 141 131 54 22 152 19 206 -6 41 -20 107 -83 131 -125
9 -16 15 -17 50 -7 87 24 160 10 239 -46 34 -24 52 -48 78 -103 l33 -70 51 6
c188 22 343 -158 290 -338 -29 -102 -119 -184 -218 -202 -46 -8 -68 -29 -68
-65 0 -45 31 -65 87 -57 116 15 246 116 301 233 24 52 27 70 27 163 0 92 -4
112 -26 160 -58 122 -180 214 -303 227 -53 5 -59 9 -86 47 -42 60 -98 111
-155 140 -56 27 -155 47 -198 39 -22 -4 -36 2 -70 34 -113 104 -252 138 -388
94z"/>
<path d="M790 969 c-120 -20 -238 -101 -270 -183 -37 -98 24 -220 136 -274 30
-14 34 -20 34 -53 0 -47 -15 -87 -43 -118 l-22 -24 28 7 c66 16 141 50 194 90
41 30 75 46 117 54 119 24 218 87 258 165 29 59 22 142 -18 200 -71 101 -258
163 -414 136z m203 -53 c26 -8 67 -26 93 -41 43 -25 45 -28 29 -45 -10 -11
-27 -20 -38 -22 -12 -2 -24 -13 -27 -24 -7 -30 -59 -69 -96 -72 -30 -3 -37 2
-72 43 -7 8 -17 15 -22 15 -17 0 -41 -33 -35 -48 7 -18 -12 -41 -43 -53 -25
-10 -82 12 -82 32 0 24 -29 17 -64 -16 -43 -40 -57 -41 -67 -2 -23 84 56 188
173 228 64 22 186 25 251 5z m194 -185 c8 -58 -26 -122 -85 -161 -48 -32 -128
-60 -171 -60 -13 0 -67 -27 -118 -60 -51 -32 -93 -57 -93 -55 0 2 5 16 11 31
5 16 7 45 4 66 -6 32 -14 41 -58 66 -29 16 -60 39 -70 50 -18 20 -18 21 18 45
21 14 45 23 54 20 52 -16 70 -27 74 -44 3 -11 14 -19 26 -19 20 0 25 9 22 36
-2 15 25 36 64 49 35 13 75 3 88 -21 12 -21 36 -17 46 9 11 28 50 64 76 69 11
2 21 12 23 23 2 11 13 28 25 37 21 16 23 16 40 -13 11 -16 21 -47 24 -68z"/>
<path d="M1290 686 c0 -119 -128 -232 -289 -253 -28 -4 -57 -16 -76 -32 -17
-14 -41 -33 -55 -42 -24 -16 -24 -16 39 -27 45 -8 72 -20 97 -42 41 -35 97
-65 173 -91 30 -11 55 -19 56 -19 1 0 -8 21 -21 47 -13 25 -24 63 -24 83 0 32
5 39 52 70 29 19 66 54 82 78 54 77 44 209 -18 261 -14 12 -16 8 -16 -33z"/>
</g>
</svg>
