<?xml version="1.0" standalone="no"?>
<!DOCTYPE svg PUBLIC "-//W3C//DTD SVG 20010904//EN"
 "http://www.w3.org/TR/2001/REC-SVG-20010904/DTD/svg10.dtd">
<svg version="1.0" xmlns="http://www.w3.org/2000/svg"
 width="184.000000pt" height="184.000000pt" viewBox="0 0 184.000000 184.000000"
 preserveAspectRatio="xMidYMid meet">
<metadata>
Created by potrace 1.13, written by Peter Selinger 2001-2015
</metadata>
<g transform="translate(0.000000,184.000000) scale(0.100000,-0.100000)"
fill="#000000" stroke="none">
<path d="M589 1731 c-141 -45 -254 -178 -267 -314 l-5 -48 -63 -29 c-85 -38
-156 -107 -197 -189 -30 -61 -32 -73 -32 -166 0 -88 3 -107 27 -158 54 -115
130 -184 240 -219 110 -33 170 -17 170 47 0 38 -18 53 -74 60 -100 14 -171 62
-213 144 -33 67 -40 128 -21 193 32 111 118 182 233 194 l59 6 -1 92 c0 75 4
98 22 132 26 49 92 111 141 131 54 22 152 19 206 -6 41 -20 107 -83 131 -125
9 -16 15 -17 50 -7 87 24 160 10 239 -46 34 -24 52 -48 78 -103 l33 -70 51 6
c188 22 343 -158 290 -338 -29 -102 -119 -184 -218 -202 -46 -8 -68 -29 -68
-65 0 -45 31 -65 87 -57 116 15 246 116 301 233 24 52 27 70 27 163 0 92 -4
112 -26 160 -58 122 -180 214 -303 227 -53 5 -59 9 -86 47 -42 60 -98 111
-155 140 -56 27 -155 47 -198 39 -22 -4 -36 2 -70 34 -113 104 -252 138 -388
94z"/>
<path d="M576 824 c-11 -11 -16 -35 -16 -83 0 -86 14 -101 93 -101 54 0 57 2
109 53 58 58 104 77 184 77 65 0 141 -36 186 -89 33 -39 37 -41 92 -41 90 0
96 7 96 100 0 68 -3 81 -19 90 -13 6 -146 10 -365 10 -300 0 -347 -2 -360 -16z"/>
<path d="M810 619 l-65 -59 65 -59 65 -59 3 39 c3 38 4 39 43 39 39 0 39 0 39
40 0 40 0 40 -39 40 -39 0 -40 1 -43 39 l-3 39 -65 -59z"/>
<path d="M576 584 c-12 -11 -16 -35 -16 -84 0 -87 11 -100 87 -100 48 0 54 2
48 18 -13 35 -17 108 -7 145 l10 37 -53 0 c-35 0 -59 -5 -69 -16z"/>
<path d="M1188 568 c4 -18 7 -49 7 -68 0 -19 -3 -50 -7 -67 l-7 -33 50 0 c82
0 89 8 89 100 0 92 -7 100 -89 100 l-50 0 7 -32z"/>
<path d="M1000 541 l0 -41 -40 0 -40 0 0 -40 0 -40 40 0 40 0 0 -41 0 -41 65
57 c36 32 65 61 65 65 0 4 -29 33 -65 65 l-65 57 0 -41z"/>
<path d="M576 344 c-12 -11 -16 -35 -16 -84 0 -49 4 -73 16 -84 13 -14 60 -16
360 -16 219 0 352 4 365 10 16 9 19 22 19 90 0 94 -6 100 -99 100 -59 0 -62
-1 -99 -42 -98 -109 -246 -112 -357 -7 -51 48 -54 49 -113 49 -42 0 -65 -5
-76 -16z"/>
</g>
</svg>
