<?xml version="1.0" standalone="no"?>
<!DOCTYPE svg PUBLIC "-//W3C//DTD SVG 20010904//EN"
 "http://www.w3.org/TR/2001/REC-SVG-20010904/DTD/svg10.dtd">
<svg version="1.0" xmlns="http://www.w3.org/2000/svg"
 width="184.000000pt" height="184.000000pt" viewBox="0 0 184.000000 184.000000"
 preserveAspectRatio="xMidYMid meet">
<metadata>
Created by potrace 1.13, written by Peter Selinger 2001-2015
</metadata>
<g transform="translate(0.000000,184.000000) scale(0.100000,-0.100000)"
fill="#000000" stroke="none">
<path d="M589 1731 c-141 -45 -254 -178 -267 -314 l-5 -48 -63 -29 c-85 -38
-156 -107 -197 -189 -30 -61 -32 -73 -32 -166 0 -88 3 -107 27 -158 54 -115
130 -184 240 -219 110 -33 170 -17 170 47 0 38 -18 53 -74 60 -100 14 -171 62
-213 144 -33 67 -40 128 -21 193 32 111 118 182 233 194 l59 6 -1 92 c0 75 4
98 22 132 26 49 92 111 141 131 54 22 152 19 206 -6 41 -20 107 -83 131 -125
9 -16 15 -17 50 -7 87 24 160 10 239 -46 34 -24 52 -48 78 -103 l33 -70 51 6
c188 22 343 -158 290 -338 -29 -102 -119 -184 -218 -202 -46 -8 -68 -29 -68
-65 0 -45 31 -65 87 -57 116 15 246 116 301 233 24 52 27 70 27 163 0 92 -4
112 -26 160 -58 122 -180 214 -303 227 -53 5 -59 9 -86 47 -42 60 -98 111
-155 140 -56 27 -155 47 -198 39 -22 -4 -36 2 -70 34 -113 104 -252 138 -388
94z"/>
<path d="M824 1086 c-12 -32 0 -61 29 -64 18 -2 27 -9 27 -21 0 -13 -20 -24
-81 -45 l-81 -26 -20 25 -20 25 -39 -31 -39 -30 21 -29 21 -28 -25 -34 c-54
-71 -71 -125 -72 -228 0 -88 3 -101 33 -162 40 -83 119 -158 200 -189 44 -18
77 -23 147 -23 81 0 97 3 156 32 79 38 150 109 187 190 23 49 27 70 27 152 0
103 -18 157 -72 228 l-25 34 21 28 21 29 -39 30 -39 31 -20 -25 -20 -25 -81
26 c-61 21 -81 32 -81 45 0 12 9 19 28 21 24 3 27 7 27 38 l0 35 -93 3 c-74 2
-93 0 -98 -12z m230 -220 c91 -45 150 -131 163 -236 l6 -50 -43 0 c-38 0 -46
5 -87 50 -64 72 -83 69 -119 -19 -16 -38 -31 -67 -34 -65 -3 3 -23 58 -45 122
-52 152 -59 153 -131 17 l-52 -100 -46 -3 c-45 -3 -46 -2 -46 26 0 46 28 126
59 169 84 116 243 154 375 89z m-179 -324 c33 -95 44 -118 61 -120 18 -3 27
11 59 88 l38 91 41 -40 c35 -34 49 -40 89 -43 l48 -3 -26 -52 c-52 -103 -144
-158 -265 -158 -121 0 -213 55 -265 158 l-26 52 58 5 58 5 40 72 c22 39 42 69
45 66 3 -2 23 -57 45 -121z"/>
</g>
</svg>
