<?xml version="1.0" standalone="no"?>
<!DOCTYPE svg PUBLIC "-//W3C//DTD SVG 20010904//EN"
 "http://www.w3.org/TR/2001/REC-SVG-20010904/DTD/svg10.dtd">
<svg version="1.0" xmlns="http://www.w3.org/2000/svg"
 width="184.000000pt" height="184.000000pt" viewBox="0 0 184.000000 184.000000"
 preserveAspectRatio="xMidYMid meet">
<metadata>
Created by potrace 1.13, written by Peter Selinger 2001-2015
</metadata>
<g transform="translate(0.000000,184.000000) scale(0.100000,-0.100000)"
fill="#000000" stroke="none">
<path d="M589 1731 c-141 -45 -254 -178 -267 -314 l-5 -48 -63 -29 c-85 -38
-156 -107 -197 -189 -30 -61 -32 -73 -32 -166 0 -88 3 -107 27 -158 54 -115
130 -184 240 -219 110 -33 170 -17 170 47 0 38 -18 53 -74 60 -100 14 -171 62
-213 144 -33 67 -40 128 -21 193 32 111 118 182 233 194 l59 6 -1 92 c0 75 4
98 22 132 26 49 92 111 141 131 54 22 152 19 206 -6 41 -20 107 -83 131 -125
9 -16 15 -17 50 -7 87 24 160 10 239 -46 34 -24 52 -48 78 -103 l33 -70 51 6
c188 22 343 -158 290 -338 -29 -102 -119 -184 -218 -202 -46 -8 -68 -29 -68
-65 0 -45 31 -65 87 -57 116 15 246 116 301 233 24 52 27 70 27 163 0 92 -4
112 -26 160 -58 122 -180 214 -303 227 -53 5 -59 9 -86 47 -42 60 -98 111
-155 140 -56 27 -155 47 -198 39 -22 -4 -36 2 -70 34 -113 104 -252 138 -388
94z"/>
<path d="M572 1048 c-17 -17 -17 -639 0 -656 8 -8 52 -12 130 -12 l118 0 0 28
c0 35 16 52 51 52 27 0 27 1 17 30 -14 42 -3 92 28 121 20 19 37 24 75 24 l49
0 0 63 0 62 98 0 c63 0 102 -4 110 -12 17 -17 17 -259 0 -276 -7 -7 -25 -12
-40 -12 -24 0 -28 -4 -28 -30 0 -29 2 -30 45 -30 35 0 52 6 70 25 24 24 25 27
25 185 0 158 -1 161 -25 185 -23 24 -30 25 -140 25 l-115 0 0 108 c0 71 -4
112 -12 120 -17 17 -439 17 -456 0z m188 -128 l0 -60 -70 0 -70 0 0 60 0 60
70 0 70 0 0 -60z m220 0 l0 -60 -70 0 -70 0 0 53 c0 30 3 57 7 60 3 4 35 7 70
7 l63 0 0 -60z m-220 -180 l0 -60 -70 0 -70 0 0 60 0 60 70 0 70 0 0 -60z
m220 0 l0 -60 -70 0 -70 0 0 53 c0 30 3 57 7 60 3 4 35 7 70 7 l63 0 0 -60z
m-220 -180 l0 -60 -70 0 -70 0 0 60 0 60 70 0 70 0 0 -60z"/>
<path d="M941 574 c-12 -15 -21 -34 -21 -44 0 -30 39 -70 69 -70 32 0 71 37
71 67 0 33 -38 73 -70 73 -19 0 -36 -9 -49 -26z"/>
<path d="M860 321 l0 -101 130 0 130 0 0 100 0 100 -29 0 c-28 0 -31 -4 -61
-95 -17 -52 -37 -95 -44 -95 -6 0 -25 42 -42 93 -27 83 -33 92 -57 95 l-27 3
0 -100z"/>
</g>
</svg>
