<?xml version="1.0" standalone="no"?>
<!DOCTYPE svg PUBLIC "-//W3C//DTD SVG 20010904//EN"
 "http://www.w3.org/TR/2001/REC-SVG-20010904/DTD/svg10.dtd">
<?xml-stylesheet type="text/css" href="/assets/css/main.css" ?>
<svg version="1.0" xmlns="http://www.w3.org/2000/svg"
 width="184.000000pt" height="184.000000pt" viewBox="0 0 184.000000 184.000000"
 preserveAspectRatio="xMidYMid meet" class="logos">
<metadata>
Created by potrace 1.13, written by Peter Selinger 2001-2015
</metadata>
<g transform="translate(0.000000,184.000000) scale(0.100000,-0.100000)" stroke="none">
<path d="M589 1731 c-141 -45 -254 -178 -267 -314 l-5 -48 -63 -29 c-85 -38
-156 -107 -197 -189 -30 -61 -32 -73 -32 -166 0 -88 3 -107 27 -158 54 -115
130 -184 240 -219 110 -33 170 -17 170 47 0 38 -18 53 -74 60 -100 14 -171 62
-213 144 -33 67 -40 128 -21 193 32 111 118 182 233 194 l59 6 -1 92 c0 75 4
98 22 132 26 49 92 111 141 131 54 22 152 19 206 -6 41 -20 107 -83 131 -125
9 -16 15 -17 50 -7 87 24 160 10 239 -46 34 -24 52 -48 78 -103 l33 -70 51 6
c188 22 343 -158 290 -338 -29 -102 -119 -184 -218 -202 -46 -8 -68 -29 -68
-65 0 -45 31 -65 87 -57 116 15 246 116 301 233 24 52 27 70 27 163 0 92 -4
112 -26 160 -58 122 -180 214 -303 227 -53 5 -59 9 -86 47 -42 60 -98 111
-155 140 -56 27 -155 47 -198 39 -22 -4 -36 2 -70 34 -113 104 -252 138 -388
94z"/>
<path d="M830 1134 c-76 -20 -129 -54 -188 -119 -172 -188 -108 -493 126 -603
50 -24 69 -27 162 -27 93 0 112 3 162 27 32 15 81 50 108 78 211 210 113 570
-176 645 -71 18 -122 18 -194 -1z m226 -115 c130 -62 194 -213 149 -350 -25
-73 -101 -149 -174 -174 -68 -22 -169 -17 -226 13 -193 99 -212 371 -34 489
84 55 199 64 285 22z"/>
<path d="M968 862 l-3 -27 -108 -3 -107 -3 19 -38 c20 -37 20 -38 0 -70 -10
-17 -19 -34 -19 -36 0 -3 50 -5 110 -5 l110 0 0 -25 c0 -14 3 -25 6 -25 9 0
154 121 153 128 0 4 -36 35 -79 69 l-79 63 -3 -28z"/>
<path d="M1229 437 l-47 -43 80 -97 c75 -91 82 -97 117 -97 48 0 81 33 81 80
0 30 -11 46 -84 117 -46 46 -88 83 -93 83 -4 -1 -29 -20 -54 -43z"/>
</g>
</svg>
